<svg width="16" height="16" viewBox="0 0 16 16" fill="none" xmlns="http://www.w3.org/2000/svg">
<g clip-path="url(#clip0_0_118)">
<path d="M7.92933 16C7.88005 16 7.83137 15.9892 7.78679 15.9681C7.74222 15.9471 7.70286 15.9165 7.67155 15.8784C7.64025 15.8403 7.61777 15.7958 7.60574 15.748C7.59372 15.7002 7.59244 15.6503 7.602 15.602L8.07333 13.2453C8.08584 13.1805 8.11768 13.121 8.16467 13.0747L13.35 7.88933C13.5378 7.70235 13.792 7.59737 14.057 7.59737C14.322 7.59737 14.5762 7.70235 14.764 7.88933L15.7067 8.832C15.894 9.01961 15.9992 9.27389 15.9992 9.539C15.9992 9.80411 15.894 10.0584 15.7067 10.246L10.5213 15.4313C10.4748 15.4781 10.4154 15.5099 10.3507 15.5227L7.994 15.994C7.97267 15.998 7.95103 16 7.92933 16ZM8.708 13.474L8.35467 15.2413L10.122 14.888L15.236 9.774C15.2985 9.71149 15.3336 9.62672 15.3336 9.53833C15.3336 9.44995 15.2985 9.36518 15.236 9.30267L14.2933 8.36C14.2308 8.29751 14.1461 8.2624 14.0577 8.2624C13.9693 8.2624 13.8845 8.29751 13.822 8.36L8.708 13.474ZM6.33333 14H1.66667C1.22475 13.9996 0.80103 13.8239 0.488545 13.5115C0.176061 13.199 0.000353112 12.7753 0 12.3333L0 3.66667C0 2.74733 0.747333 2 1.66667 2H3C3.08841 2 3.17319 2.03512 3.2357 2.09763C3.29821 2.16014 3.33333 2.24493 3.33333 2.33333C3.33333 2.42174 3.29821 2.50652 3.2357 2.56904C3.17319 2.63155 3.08841 2.66667 3 2.66667H1.66667C1.11533 2.66667 0.666667 3.11533 0.666667 3.66667V12.3333C0.666667 12.8847 1.11533 13.3333 1.66667 13.3333H6.33333C6.42174 13.3333 6.50652 13.3685 6.56904 13.431C6.63155 13.4935 6.66667 13.5783 6.66667 13.6667C6.66667 13.7551 6.63155 13.8399 6.56904 13.9024C6.50652 13.9649 6.42174 14 6.33333 14ZM11 8C10.9116 8 10.8268 7.96488 10.7643 7.90237C10.7018 7.83986 10.6667 7.75507 10.6667 7.66667V3.66667C10.6667 3.11533 10.218 2.66667 9.66667 2.66667H8.33333C8.24493 2.66667 8.16014 2.63155 8.09763 2.56904C8.03512 2.50652 8 2.42174 8 2.33333C8 2.24493 8.03512 2.16014 8.09763 2.09763C8.16014 2.03512 8.24493 2 8.33333 2H9.66667C10.586 2 11.3333 2.74733 11.3333 3.66667V7.66667C11.3333 7.75507 11.2982 7.83986 11.2357 7.90237C11.1732 7.96488 11.0884 8 11 8Z" fill="#5A5A5A"/>
<path d="M7.66667 4H3.66667C3.11533 4 2.66667 3.55133 2.66667 3V1.66667C2.66667 1.57826 2.70179 1.49348 2.7643 1.43096C2.82681 1.36845 2.91159 1.33333 3 1.33333H4.03333C4.188 0.573333 4.862 0 5.66667 0C6.47133 0 7.14533 0.573333 7.3 1.33333H8.33333C8.42174 1.33333 8.50652 1.36845 8.56904 1.43096C8.63155 1.49348 8.66667 1.57826 8.66667 1.66667V3C8.66667 3.55133 8.218 4 7.66667 4ZM3.33333 2V3C3.33333 3.18333 3.48333 3.33333 3.66667 3.33333H7.66667C7.85 3.33333 8 3.18333 8 3V2H7C6.91159 2 6.82681 1.96488 6.7643 1.90237C6.70179 1.83986 6.66667 1.75507 6.66667 1.66667C6.66667 1.11533 6.218 0.666667 5.66667 0.666667C5.11533 0.666667 4.66667 1.11533 4.66667 1.66667C4.66667 1.75507 4.63155 1.83986 4.56904 1.90237C4.50652 1.96488 4.42174 2 4.33333 2H3.33333ZM9 6H2.33333C2.24493 6 2.16014 5.96488 2.09763 5.90237C2.03512 5.83986 2 5.75507 2 5.66667C2 5.57826 2.03512 5.49348 2.09763 5.43096C2.16014 5.36845 2.24493 5.33333 2.33333 5.33333H9C9.08841 5.33333 9.17319 5.36845 9.2357 5.43096C9.29821 5.49348 9.33333 5.57826 9.33333 5.66667C9.33333 5.75507 9.29821 5.83986 9.2357 5.90237C9.17319 5.96488 9.08841 6 9 6ZM9 8H2.33333C2.24493 8 2.16014 7.96488 2.09763 7.90237C2.03512 7.83986 2 7.75507 2 7.66667C2 7.57826 2.03512 7.49348 2.09763 7.43096C2.16014 7.36845 2.24493 7.33333 2.33333 7.33333H9C9.08841 7.33333 9.17319 7.36845 9.2357 7.43096C9.29821 7.49348 9.33333 7.57826 9.33333 7.66667C9.33333 7.75507 9.29821 7.83986 9.2357 7.90237C9.17319 7.96488 9.08841 8 9 8ZM9 10H2.33333C2.24493 10 2.16014 9.96488 2.09763 9.90237C2.03512 9.83986 2 9.75507 2 9.66667C2 9.57826 2.03512 9.49348 2.09763 9.43096C2.16014 9.36845 2.24493 9.33333 2.33333 9.33333H9C9.08841 9.33333 9.17319 9.36845 9.2357 9.43096C9.29821 9.49348 9.33333 9.57826 9.33333 9.66667C9.33333 9.75507 9.29821 9.83986 9.2357 9.90237C9.17319 9.96488 9.08841 10 9 10Z" fill="#5A5A5A"/>
</g>
<defs>
<clipPath id="clip0_0_118">
<rect width="16" height="16" fill="white"/>
</clipPath>
</defs>
</svg>
