<svg width="16" height="16" viewBox="0 0 16 16" fill="none" xmlns="http://www.w3.org/2000/svg">
<g clip-path="url(#clip0_0_145)">
<path d="M10.158 4.7C10.158 4.62928 10.1299 4.56145 10.0799 4.51144C10.0299 4.46143 9.96209 4.43333 9.89137 4.43333H2.4333C2.28627 4.43333 2.16663 4.3137 2.16663 4.16667V2.3C2.16663 2.15297 2.28627 2.03333 2.4333 2.03333H10.1666C10.3137 2.03333 10.4333 2.15297 10.4333 2.3V3.61183C10.4333 3.68256 10.4614 3.75039 10.5114 3.8004C10.5614 3.8504 10.6292 3.8785 10.7 3.8785C10.7707 3.8785 10.8385 3.8504 10.8885 3.8004C10.9385 3.75039 10.9666 3.68256 10.9666 3.61183V2.3C10.9666 1.8589 10.6077 1.5 10.1666 1.5H2.4333C1.9922 1.5 1.6333 1.8589 1.6333 2.3V4.16667C1.6333 4.60777 1.9922 4.96667 2.4333 4.96667H9.89137C9.96209 4.96667 10.0299 4.93857 10.0799 4.88856C10.1299 4.83855 10.158 4.77072 10.158 4.7ZM4.19997 6.6039C4.19997 6.21577 3.8842 5.9 3.49607 5.9H2.3372C1.94907 5.9 1.6333 6.21577 1.6333 6.6039V7.42943C1.6333 7.81757 1.94907 8.13333 2.3372 8.13333H3.49607C3.8842 8.13333 4.19997 7.81757 4.19997 7.42943V6.6039ZM3.66663 7.42943C3.66659 7.47466 3.64861 7.51802 3.61663 7.54999C3.58465 7.58197 3.54129 7.59996 3.49607 7.6H2.3372C2.29198 7.59996 2.24862 7.58197 2.21664 7.54999C2.18466 7.51802 2.16668 7.47466 2.16663 7.42943V6.6039C2.16668 6.55868 2.18466 6.51532 2.21664 6.48334C2.24862 6.45136 2.29198 6.43338 2.3372 6.43333H3.49607C3.54129 6.43338 3.58465 6.45136 3.61663 6.48334C3.64861 6.51532 3.66659 6.55868 3.66663 6.6039V7.42943ZM7.56663 6.6039C7.56663 6.21577 7.25087 5.9 6.86273 5.9H5.70387C5.31573 5.9 4.99997 6.21577 4.99997 6.6039V7.42943C4.99997 7.81757 5.31573 8.13333 5.70387 8.13333H6.86273C7.25087 8.13333 7.56663 7.81757 7.56663 7.42943V6.6039ZM7.0333 7.42943C7.03326 7.47466 7.01527 7.51802 6.98329 7.54999C6.95132 7.58197 6.90796 7.59996 6.86273 7.6H5.70387C5.65864 7.59996 5.61529 7.58197 5.58331 7.54999C5.55133 7.51802 5.53335 7.47466 5.5333 7.42943V6.6039C5.53335 6.55868 5.55133 6.51532 5.58331 6.48334C5.61529 6.45136 5.65864 6.43338 5.70387 6.43333H6.86273C6.90796 6.43338 6.95132 6.45136 6.98329 6.48334C7.01527 6.51532 7.03326 6.55868 7.0333 6.6039V7.42943ZM10.2627 5.9H9.10387C8.71573 5.9 8.39997 6.21577 8.39997 6.6039V7.42943C8.39997 7.81757 8.71573 8.13333 9.10387 8.13333H10.2627C10.6509 8.13333 10.9666 7.81757 10.9666 7.42943V6.6039C10.9666 6.21577 10.6509 5.9 10.2627 5.9ZM10.4333 7.42943C10.4332 7.47465 10.4153 7.51801 10.3833 7.54998C10.3513 7.58196 10.308 7.59995 10.2627 7.6H9.10387C9.05865 7.59995 9.01529 7.58196 8.98332 7.54998C8.95134 7.51801 8.93335 7.47465 8.9333 7.42943V6.6039C8.93335 6.55868 8.95134 6.51533 8.98332 6.48335C9.01529 6.45137 9.05865 6.43339 9.10387 6.43333H10.2627C10.308 6.43339 10.3513 6.45137 10.3833 6.48335C10.4153 6.51533 10.4332 6.55868 10.4333 6.6039V7.42943ZM4.19997 9.8039C4.19997 9.41577 3.8842 9.1 3.49607 9.1H2.3372C1.94907 9.1 1.6333 9.41577 1.6333 9.8039V10.6294C1.6333 11.0176 1.94907 11.3333 2.3372 11.3333H3.49607C3.8842 11.3333 4.19997 11.0176 4.19997 10.6294V9.8039ZM3.66663 10.6294C3.66659 10.6747 3.64861 10.718 3.61663 10.75C3.58465 10.782 3.54129 10.8 3.49607 10.8H2.3372C2.29198 10.8 2.24862 10.782 2.21664 10.75C2.18466 10.718 2.16668 10.6747 2.16663 10.6294V9.8039C2.16668 9.75868 2.18466 9.71532 2.21664 9.68334C2.24862 9.65136 2.29198 9.63338 2.3372 9.63333H3.49607C3.54129 9.63338 3.58465 9.65136 3.61663 9.68334C3.64861 9.71532 3.66659 9.75868 3.66663 9.8039V10.6294ZM7.56663 9.8039C7.56663 9.41577 7.25087 9.1 6.86273 9.1H5.70387C5.31573 9.1 4.99997 9.41577 4.99997 9.8039V10.6294C4.99997 11.0176 5.31573 11.3333 5.70387 11.3333H6.86273C7.25087 11.3333 7.56663 11.0176 7.56663 10.6294V9.8039ZM7.0333 10.6294C7.03326 10.6747 7.01527 10.718 6.98329 10.75C6.95132 10.782 6.90796 10.8 6.86273 10.8H5.70387C5.65864 10.8 5.61529 10.782 5.58331 10.75C5.55133 10.718 5.53335 10.6747 5.5333 10.6294V9.8039C5.53335 9.75868 5.55133 9.71532 5.58331 9.68334C5.61529 9.65136 5.65864 9.63338 5.70387 9.63333H6.86273C6.90796 9.63338 6.95132 9.65136 6.98329 9.68334C7.01527 9.71532 7.03326 9.75868 7.0333 9.8039V10.6294ZM3.49607 12.3H2.3372C1.94907 12.3 1.6333 12.6158 1.6333 13.0039V13.8294C1.6333 14.2176 1.94907 14.5333 2.3372 14.5333H3.49607C3.8842 14.5333 4.19997 14.2176 4.19997 13.8294V13.0039C4.19997 12.6158 3.8842 12.3 3.49607 12.3ZM3.66663 13.8294C3.66659 13.8747 3.64861 13.918 3.61663 13.95C3.58465 13.982 3.54129 14 3.49607 14H2.3372C2.29198 14 2.24862 13.982 2.21664 13.95C2.18466 13.918 2.16668 13.8747 2.16663 13.8294V13.0039C2.16668 12.9587 2.18466 12.9153 2.21664 12.8833C2.24862 12.8514 2.29198 12.8334 2.3372 12.8333H3.49607C3.54129 12.8334 3.58465 12.8514 3.61663 12.8833C3.64861 12.9153 3.66659 12.9587 3.66663 13.0039V13.8294ZM6.86273 12.3H5.70387C5.31573 12.3 4.99997 12.6158 4.99997 13.0039V13.8294C4.99997 14.2176 5.31573 14.5333 5.70387 14.5333H6.86273C7.25087 14.5333 7.56663 14.2176 7.56663 13.8294V13.0039C7.56663 12.6158 7.25087 12.3 6.86273 12.3ZM7.0333 13.8294C7.03326 13.8747 7.01527 13.918 6.98329 13.95C6.95132 13.982 6.90796 14 6.86273 14H5.70387C5.65864 14 5.61529 13.982 5.58331 13.95C5.55133 13.918 5.53335 13.8747 5.5333 13.8294V13.0039C5.53335 12.9587 5.55133 12.9153 5.58331 12.8833C5.61529 12.8514 5.65864 12.8334 5.70387 12.8333H6.86273C6.90796 12.8334 6.95132 12.8514 6.98329 12.8833C7.01527 12.9153 7.03326 12.9587 7.0333 13.0039V13.8294ZM12.4666 10.1C12.4666 10.0293 12.4385 9.96145 12.3885 9.91144C12.3385 9.86143 12.2707 9.83333 12.2 9.83333C12.1292 9.83333 12.0614 9.86143 12.0114 9.91144C11.9614 9.96145 11.9333 10.0293 11.9333 10.1V10.4352C11.3661 10.536 10.9398 10.9515 10.9398 11.4475C10.9398 12.2308 11.6372 12.3736 12.1465 12.4779C12.7415 12.5998 12.9268 12.6857 12.9268 12.9858C12.9268 13.2582 12.594 13.4884 12.1999 13.4884C11.9308 13.4884 11.6837 13.3831 11.5551 13.2138C11.5123 13.1578 11.4489 13.121 11.379 13.1116C11.3091 13.1022 11.2383 13.1208 11.1822 13.1635C11.126 13.2061 11.089 13.2693 11.0793 13.3391C11.0695 13.409 11.0879 13.4799 11.1303 13.5362C11.3133 13.7772 11.6026 13.9407 11.9333 13.9984V14.3333C11.9333 14.4041 11.9614 14.4719 12.0114 14.5219C12.0614 14.5719 12.1292 14.6 12.1999 14.6C12.2707 14.6 12.3385 14.5719 12.3885 14.5219C12.4385 14.4719 12.4666 14.4041 12.4666 14.3333V13.9982C13.0338 13.8973 13.4601 13.4818 13.4601 12.9859C13.4601 12.2025 12.7627 12.0597 12.2534 11.9554C11.6584 11.8336 11.4731 11.7476 11.4731 11.4475C11.4731 11.1751 11.8059 10.945 12.2 10.945C12.4691 10.945 12.7162 11.0502 12.8448 11.2196C12.8876 11.2756 12.951 11.3123 13.0209 11.3217C13.0908 11.3312 13.1616 11.3125 13.2178 11.2699C13.2739 11.2272 13.3109 11.1641 13.3206 11.0942C13.3304 11.0243 13.312 10.9535 13.2696 10.8971C13.0866 10.6561 12.7973 10.4926 12.4666 10.435V10.1Z" fill="#5A5A5A"/>
<path d="M13.907 8.80413C13.8758 8.78838 13.8417 8.77894 13.8068 8.77636C13.7718 8.77378 13.7367 8.7781 13.7035 8.78907C13.6702 8.80005 13.6395 8.81747 13.6129 8.84034C13.5864 8.86321 13.5647 8.89107 13.5489 8.92235C13.5332 8.95363 13.5237 8.9877 13.5211 9.02262C13.5186 9.05755 13.5229 9.09264 13.5339 9.12589C13.5448 9.15915 13.5623 9.18991 13.5851 9.21644C13.608 9.24296 13.6359 9.26472 13.6671 9.28047C14.7771 9.83947 15.4667 10.9582 15.4667 12.2C15.4667 14.0013 14.0012 15.4667 12.2 15.4667C10.3988 15.4667 8.93333 14.0013 8.93333 12.2C8.93333 10.3987 10.3988 8.93333 12.2 8.93333C12.3131 8.93333 12.3824 8.95 12.4691 8.89853C12.5075 8.87578 12.5395 8.84377 12.5624 8.80543C12.5852 8.76709 12.5981 8.72363 12.5998 8.67903C12.6001 8.6708 12.6 1.35023 12.6 1.33333C12.6 0.598133 12.0019 0 11.2667 0H1.33333C0.598133 0 0 0.598133 0 1.33333V14.6667C0 15.4019 0.598133 16 1.33333 16H8.85057C8.92129 16 8.98912 15.9719 9.03913 15.9219C9.08914 15.8719 9.11723 15.8041 9.11723 15.7333C9.11723 15.6626 9.08914 15.5948 9.03913 15.5448C8.98912 15.4948 8.92129 15.4667 8.85057 15.4667H1.33333C0.892233 15.4667 0.533333 15.1078 0.533333 14.6667V1.33333C0.533333 0.892233 0.892233 0.533333 1.33333 0.533333H11.2667C11.7078 0.533333 12.0667 0.892233 12.0667 1.33333V8.4026C10.0329 8.4731 8.4 10.1493 8.4 12.2C8.4 14.2953 10.1047 16 12.2 16C14.2953 16 16 14.2953 16 12.2C16 10.7555 15.198 9.45427 13.907 8.80413Z" fill="#5A5A5A"/>
<path d="M9.33314 4.00013C9.40386 4.00013 9.47169 3.97204 9.5217 3.92203C9.57171 3.87202 9.5998 3.80419 9.5998 3.73346V2.73346C9.5998 2.66274 9.57171 2.59491 9.5217 2.5449C9.47169 2.49489 9.40386 2.4668 9.33314 2.4668H9.06647C8.99575 2.4668 8.92792 2.49489 8.87791 2.5449C8.8279 2.59491 8.7998 2.66274 8.7998 2.73346C8.7998 2.80419 8.8279 2.87202 8.87791 2.92203C8.92792 2.97204 8.99575 3.00013 9.06647 3.00013V3.73346C9.06647 3.80419 9.09457 3.87202 9.14458 3.92203C9.19459 3.97204 9.26241 4.00013 9.33314 4.00013Z" fill="#5A5A5A"/>
</g>
<defs>
<clipPath id="clip0_0_145">
<rect width="16" height="16" fill="white"/>
</clipPath>
</defs>
</svg>
