<svg width="16" height="16" viewBox="0 0 16 16" fill="none" xmlns="http://www.w3.org/2000/svg">
<path d="M3.33317 8L5.99984 5.33333M3.33317 8L5.99984 10.6667M3.33317 8H9.99984M6.6665 14C7.45443 14 8.23465 13.8448 8.9626 13.5433C9.69056 13.2417 10.352 12.7998 10.9091 12.2426C11.4663 11.6855 11.9083 11.0241 12.2098 10.2961C12.5113 9.56815 12.6665 8.78793 12.6665 8C12.6665 7.21207 12.5113 6.43185 12.2098 5.7039C11.9083 4.97595 11.4663 4.31451 10.9091 3.75736C10.352 3.20021 9.69056 2.75825 8.9626 2.45672C8.23465 2.15519 7.45443 2 6.6665 2" stroke="#5A5A5A" stroke-linecap="round" stroke-linejoin="round"/>
</svg>
