<svg width="9" height="9" viewBox="0 0 9 9" fill="none" xmlns="http://www.w3.org/2000/svg">
<path d="M7.05244 2.15527H2.15543V7.05228H7.05244V2.15527Z" fill="white"/>
<path d="M8.43197 3.48812C8.2804 3.33007 8.12368 3.16669 8.06448 3.02352C8.01005 2.89199 8.00676 2.67415 8.00358 2.46345C7.99765 2.07135 7.99094 1.62696 7.68199 1.31801C7.37304 1.00906 6.92865 1.00235 6.53655 0.996421C6.32585 0.993242 6.10801 0.989947 5.97648 0.935525C5.83335 0.876317 5.66993 0.719605 5.51188 0.568033C5.23428 0.301771 4.91956 0 4.5 0C4.08044 0 3.76576 0.301771 3.48812 0.568033C3.33007 0.719605 3.16669 0.876317 3.02352 0.935525C2.89199 0.989947 2.67415 0.993242 2.46345 0.996421C2.07135 1.00235 1.62696 1.00906 1.31801 1.31801C1.00906 1.62696 1.00235 2.07135 0.996421 2.46345C0.993242 2.67415 0.989947 2.89199 0.935525 3.02352C0.876317 3.16665 0.719605 3.33007 0.568033 3.48812C0.301771 3.76572 0 4.08044 0 4.5C0 4.91956 0.301771 5.23424 0.568033 5.51188C0.719605 5.66993 0.876317 5.83331 0.935525 5.97648C0.989947 6.10801 0.993242 6.32585 0.996421 6.53655C1.00235 6.92865 1.00906 7.37304 1.31801 7.68199C1.62696 7.99094 2.07135 7.99765 2.46345 8.00358C2.67415 8.00676 2.89199 8.01005 3.02352 8.06448C3.16665 8.12368 3.33007 8.28039 3.48812 8.43197C3.76572 8.69823 4.08044 9 4.5 9C4.91956 9 5.23424 8.69823 5.51188 8.43197C5.66993 8.2804 5.83331 8.12368 5.97648 8.06448C6.10801 8.01005 6.32585 8.00676 6.53655 8.00358C6.92865 7.99765 7.37304 7.99094 7.68199 7.68199C7.99094 7.37304 7.99765 6.92865 8.00358 6.53655C8.00676 6.32585 8.01005 6.10801 8.06448 5.97648C8.12368 5.83335 8.28039 5.66993 8.43197 5.51188C8.69823 5.23428 9 4.91956 9 4.5C9 4.08044 8.69823 3.76576 8.43197 3.48812ZM6.48978 3.76823L4.13262 6.01823C4.07283 6.0753 3.99336 6.10714 3.9107 6.10714C3.82805 6.10714 3.74857 6.0753 3.68878 6.01823L2.51022 4.89323C2.47967 4.86409 2.45515 4.82922 2.43808 4.79061C2.42101 4.75199 2.41171 4.71039 2.41072 4.66818C2.40973 4.62597 2.41706 4.58398 2.4323 4.54461C2.44754 4.50524 2.47039 4.46925 2.49954 4.43871C2.52869 4.40817 2.56357 4.38367 2.60219 4.36661C2.64081 4.34955 2.68242 4.34027 2.72463 4.33929C2.76683 4.33832 2.80882 4.34567 2.84819 4.36092C2.88756 4.37617 2.92354 4.39903 2.95407 4.4282L3.9107 5.34136L6.04593 3.3032C6.07646 3.27404 6.11244 3.25117 6.15181 3.23592C6.19118 3.22067 6.23317 3.21332 6.27537 3.21429C6.31758 3.21527 6.35919 3.22455 6.39781 3.24161C6.43643 3.25867 6.47131 3.28317 6.50046 3.31371C6.52961 3.34425 6.55246 3.38024 6.5677 3.41961C6.58294 3.45898 6.59027 3.50097 6.58928 3.54318C6.58829 3.58539 6.57899 3.62699 6.56192 3.66561C6.54485 3.70422 6.52033 3.73909 6.48978 3.76823Z" fill="#FFA45A"/>
</svg>
