<svg width="16" height="16" viewBox="0 0 16 16" fill="none" xmlns="http://www.w3.org/2000/svg">
<g clip-path="url(#clip0_0_127)">
<path d="M4.80023 8.79987H5.33356V9.3332H4.80023V8.79987ZM4.80023 9.86654H5.33356V10.3999H4.80023V9.86654ZM4.80023 10.9332H5.33356V11.4665H4.80023V10.9332ZM4.80023 7.7332H5.33356V8.26654H4.80023V7.7332ZM4.80023 6.66654H5.33356V7.19987H4.80023V6.66654ZM4.80023 5.59987H5.33356V6.1332H4.80023V5.59987ZM4.80023 4.5332H5.33356V5.06654H4.80023V4.5332ZM1.06689 4.5332H1.60023V5.06654H1.06689V4.5332ZM14.4002 4.5332H14.9336V5.06654H14.4002V4.5332ZM14.4002 10.9332H14.9336V11.4665H14.4002V10.9332ZM1.06689 10.9332H1.60023V11.4665H1.06689V10.9332Z" fill="#5A5A5A"/>
<path d="M15.7333 6.6668C15.8041 6.6668 15.8719 6.6387 15.9219 6.58869C15.9719 6.53868 16 6.47085 16 6.40013V3.73346C16 3.66274 15.9719 3.59491 15.9219 3.5449C15.8719 3.49489 15.8041 3.4668 15.7333 3.4668H0.266667C0.195942 3.4668 0.128115 3.49489 0.0781049 3.5449C0.0280952 3.59491 0 3.66274 0 3.73346L0 6.40013C0 6.47085 0.0280952 6.53868 0.0781049 6.58869C0.128115 6.6387 0.195942 6.6668 0.266667 6.6668C1.00303 6.6668 1.6 7.26376 1.6 8.00013C1.6 8.7365 1.00303 9.33346 0.266667 9.33346C0.195942 9.33346 0.128115 9.36156 0.0781049 9.41157C0.0280952 9.46158 0 9.52941 0 9.60013L0 12.2668C0 12.3375 0.0280952 12.4053 0.0781049 12.4554C0.128115 12.5054 0.195942 12.5335 0.266667 12.5335H15.7333C15.8041 12.5335 15.8719 12.5054 15.9219 12.4554C15.9719 12.4053 16 12.3375 16 12.2668V9.60013C16 9.52941 15.9719 9.46158 15.9219 9.41157C15.8719 9.36156 15.8041 9.33346 15.7333 9.33346C14.997 9.33346 14.4 8.7365 14.4 8.00013C14.4 7.26376 14.997 6.6668 15.7333 6.6668ZM13.8841 8.26533C14.0019 9.08566 14.6464 9.73013 15.4667 9.84786V12.0001H0.533333V9.84786C1.5538 9.7014 2.26233 8.75543 2.11587 7.73493C1.99813 6.91463 1.35367 6.27013 0.533333 6.1524V4.00013H15.4667V6.1524C14.4462 6.29886 13.7377 7.24483 13.8841 8.26533Z" fill="#5A5A5A"/>
<path d="M7.99977 5.33398C7.41067 5.33398 6.93311 5.81155 6.93311 6.40065C6.93311 6.98975 7.41067 7.46732 7.99977 7.46732C8.58887 7.46732 9.06644 6.98975 9.06644 6.40065C9.06644 5.81155 8.58887 5.33398 7.99977 5.33398ZM7.99977 6.93398C7.70521 6.93398 7.46644 6.69522 7.46644 6.40065C7.46644 6.10608 7.70521 5.86732 7.99977 5.86732C8.29434 5.86732 8.53311 6.10608 8.53311 6.40065C8.53311 6.69522 8.29434 6.93398 7.99977 6.93398ZM11.1998 8.53398C10.6107 8.53398 10.1331 9.01155 10.1331 9.60065C10.1331 10.1898 10.6107 10.6673 11.1998 10.6673C11.7889 10.6673 12.2664 10.1898 12.2664 9.60065C12.2664 9.01155 11.7889 8.53398 11.1998 8.53398ZM11.1998 10.134C10.9052 10.134 10.6664 9.89522 10.6664 9.60065C10.6664 9.30608 10.9052 9.06732 11.1998 9.06732C11.4943 9.06732 11.7331 9.30608 11.7331 9.60065C11.7331 9.89522 11.4943 10.134 11.1998 10.134ZM7.27791 9.94478L11.5445 5.67822L11.9216 6.05535L7.65504 10.3219L7.27791 9.94478Z" fill="#5A5A5A"/>
</g>
<defs>
<clipPath id="clip0_0_127">
<rect width="16" height="16" fill="white"/>
</clipPath>
</defs>
</svg>
