<svg width="20" height="20" viewBox="0 0 20 20" fill="none" xmlns="http://www.w3.org/2000/svg">
<g clip-path="url(#clip0_621_1730)">
<path d="M19.3333 14.6667H16.4617C17.1324 13.9218 17.6054 13.0205 17.8373 12.0454C18.0693 11.0702 18.0528 10.0525 17.7893 9.0854C17.5259 8.11831 17.0239 7.23281 16.3294 6.51007C15.6349 5.78732 14.7702 5.25045 13.8143 4.94867L10.1807 0.796667C9.96187 0.546659 9.69221 0.346258 9.38972 0.208868C9.08723 0.0714776 8.75889 0.000267183 8.42667 0L1 0C0.734784 0 0.48043 0.105357 0.292893 0.292893C0.105357 0.48043 0 0.734784 0 1L0 4.33333C0 4.59855 0.105357 4.8529 0.292893 5.04044C0.48043 5.22798 0.734784 5.33333 1 5.33333H2.74667C3.39876 5.73565 4.15407 5.93895 4.92 5.91833C5.45554 5.92955 5.98733 5.8266 6.48 5.61633L7.53333 6.67067C5.48667 8.944 5.48867 12.3963 7.53833 14.6667H4.66667C4.48986 14.6667 4.32029 14.7369 4.19526 14.8619C4.07024 14.987 4 15.1565 4 15.3333V16.6667C4.00035 16.7832 4.03133 16.8975 4.08984 16.9983C4.14835 17.099 4.23232 17.1826 4.33333 17.2407V19.3333C4.33333 19.5101 4.40357 19.6797 4.5286 19.8047C4.65362 19.9298 4.82319 20 5 20H19C19.1768 20 19.3464 19.9298 19.4714 19.8047C19.5964 19.6797 19.6667 19.5101 19.6667 19.3333V17.2407C19.7677 17.1826 19.8517 17.099 19.9102 16.9983C19.9687 16.8975 19.9996 16.7832 20 16.6667V15.3333C20 15.1565 19.9298 14.987 19.8047 14.8619C19.6797 14.7369 19.5101 14.6667 19.3333 14.6667ZM17.3333 10.6667C17.333 11.4241 17.1709 12.1728 16.858 12.8626C16.545 13.5524 16.0884 14.1675 15.5187 14.6667H14.3913C15.2685 14.1439 15.9497 13.3476 16.3304 12.4001C16.7111 11.4526 16.7702 10.4063 16.4986 9.42198C16.227 8.43765 15.6397 7.56971 14.827 6.95151C14.0143 6.3333 13.0211 5.99901 12 6C11.938 6 11.876 6.00533 11.814 6.00767L11.2 5.395C11.4648 5.35464 11.7322 5.33403 12 5.33333C14.944 5.33667 17.33 7.72267 17.3333 10.6667ZM9.64433 8.78067C9.84152 8.97518 10.0796 9.12323 10.3413 9.214C10.3383 9.25367 10.3333 9.29333 10.3333 9.33267C10.3338 9.71673 10.4667 10.0889 10.7096 10.3864C10.9524 10.6839 11.2905 10.8886 11.6667 10.966V12.9383C11.4724 12.8697 11.3041 12.7427 11.1848 12.5747C11.0655 12.4067 11.0009 12.206 11 12C11 11.9116 10.9649 11.8268 10.9024 11.7643C10.8399 11.7018 10.7551 11.6667 10.6667 11.6667C10.5783 11.6667 10.4935 11.7018 10.431 11.7643C10.3685 11.8268 10.3333 11.9116 10.3333 12C10.3338 12.3841 10.4667 12.7562 10.7096 13.0538C10.9524 13.3513 11.2905 13.556 11.6667 13.6333V13.6667C11.6667 13.7551 11.7018 13.8399 11.7643 13.9024C11.8268 13.9649 11.9116 14 12 14C12.0884 14 12.1732 13.9649 12.2357 13.9024C12.2982 13.8399 12.3333 13.7551 12.3333 13.6667V13.6333C12.7101 13.5568 13.0488 13.3524 13.2921 13.0548C13.5354 12.7571 13.6683 12.3845 13.6683 12C13.6683 11.6155 13.5354 11.2429 13.2921 10.9452C13.0488 10.6476 12.7101 10.4432 12.3333 10.3667V8.60733C12.3719 8.55387 12.4072 8.49822 12.4393 8.44067C12.6066 8.52249 12.7478 8.64941 12.8468 8.80713C12.9459 8.96484 12.9989 9.14709 13 9.33333C13 9.42174 13.0351 9.50652 13.0976 9.56904C13.1601 9.63155 13.2449 9.66667 13.3333 9.66667C13.4217 9.66667 13.5065 9.63155 13.569 9.56904C13.6315 9.50652 13.6667 9.42174 13.6667 9.33333C13.6654 9.00558 13.5677 8.68546 13.3858 8.41282C13.2039 8.14017 12.9458 7.92706 12.6437 7.8C12.6925 7.41551 12.6143 7.02561 12.421 6.68967C14.5637 6.91633 16.1417 8.79967 15.99 10.9487C15.8387 13.098 14.012 14.741 11.859 14.665C9.70567 14.589 7.99967 12.8213 8 10.6667C7.99838 9.72058 8.33495 8.80507 8.949 8.08533L9.64433 8.78067ZM12.3333 11.0613C12.5282 11.1292 12.6971 11.2561 12.8166 11.4242C12.9361 11.5924 13.0003 11.7937 13.0003 12C13.0003 12.2063 12.9361 12.4076 12.8166 12.5758C12.6971 12.7439 12.5282 12.8708 12.3333 12.9387V11.0613ZM11.6667 10.272C11.4724 10.2033 11.304 10.0763 11.1847 9.90823C11.0654 9.74021 11.0009 9.53942 11 9.33333V9.323C11.2221 9.31655 11.4407 9.2659 11.643 9.174C11.6507 9.17067 11.6577 9.166 11.6653 9.16233L11.6667 10.272ZM6.21233 5.007C5.80364 5.17881 5.36321 5.26219 4.92 5.25167C3.12333 5.25167 2.401 4.16967 2.32 3.902C2.30713 3.86015 2.28614 3.82125 2.25824 3.78751C2.23034 3.75377 2.19606 3.72586 2.15737 3.70537C2.11868 3.68488 2.07633 3.67221 2.03274 3.66809C1.98915 3.66396 1.94518 3.66846 1.90333 3.68133C1.86149 3.6942 1.82258 3.71519 1.78884 3.74309C1.75511 3.771 1.7272 3.80527 1.70671 3.84397C1.68621 3.88266 1.67355 3.925 1.66942 3.96859C1.6653 4.01218 1.6698 4.05615 1.68267 4.098C1.75767 4.30467 1.86767 4.497 2.00767 4.66667H1C0.911595 4.66667 0.82681 4.63155 0.764298 4.56904C0.701786 4.50652 0.666667 4.42174 0.666667 4.33333V1C0.666667 0.911595 0.701786 0.82681 0.764298 0.764298C0.82681 0.701786 0.911595 0.666667 1 0.666667H8.42667C8.90667 0.667333 9.36333 0.875 9.67933 1.236L12.7237 4.71467C12.0256 4.62403 11.3168 4.66188 10.6323 4.82633L7.90233 2.09767C7.83947 2.03695 7.75527 2.00335 7.66787 2.00411C7.58047 2.00487 7.49686 2.03992 7.43506 2.10173C7.37326 2.16353 7.3382 2.24713 7.33744 2.33453C7.33668 2.42193 7.37028 2.50613 7.431 2.569L11.4667 6.60233L11.6843 6.81967C11.8072 6.94537 11.8978 7.09895 11.9484 7.26729C11.9991 7.43562 12.0082 7.61371 11.975 7.78633C11.9461 7.95679 11.8754 8.11744 11.7693 8.2539C11.6631 8.39036 11.5248 8.49839 11.3667 8.56833C11.1565 8.65714 10.9244 8.67992 10.701 8.63366C10.4776 8.5874 10.2736 8.47429 10.116 8.30933L6.95167 5.145C6.85664 5.05026 6.73523 4.98641 6.60332 4.96179C6.47141 4.93717 6.33514 4.95292 6.21233 5.007ZM6.66667 10.6667C6.66484 9.36718 7.14149 8.1125 8.00567 7.142L8.47767 7.614C8.02993 8.12774 7.7006 8.73363 7.51298 9.38876C7.32536 10.0439 7.28404 10.7323 7.39194 11.4051C7.49985 12.078 7.75434 12.7189 8.1374 13.2825C8.52047 13.8462 9.02274 14.3187 9.60867 14.6667H8.48133C7.91159 14.1675 7.45498 13.5524 7.14203 12.8626C6.82909 12.1728 6.66702 11.4241 6.66667 10.6667ZM4.66667 15.3333H19.3333V16.6667H4.66667V15.3333ZM5 19.3333V17.3333H19V19.3333H5Z" fill="#F44336"/>
</g>
<defs>
<clipPath id="clip0_621_1730">
<rect width="20" height="20" fill="white"/>
</clipPath>
</defs>
</svg>
