<svg width="9" height="9" viewBox="0 0 9 9" fill="none" xmlns="http://www.w3.org/2000/svg">
<path d="M2.20147 7.00731V2.2022H7.00657V7.00731H2.20147Z" fill="white" stroke="#5A5A5A" stroke-width="0.0919048"/>
<path d="M5.51188 0.568033L5.48007 0.601196C5.19933 0.331923 4.89792 0.0459524 4.5 0.0459524C4.10208 0.0459524 3.80071 0.331921 3.51993 0.601198L3.51913 0.60196C3.44062 0.677261 3.35936 0.755187 3.27969 0.821692L5.51188 0.568033ZM5.51188 0.568033L5.48007 0.601198L5.48065 0.601751C5.55924 0.677118 5.64058 0.755127 5.72033 0.821694C5.79988 0.888095 5.88081 0.945675 5.95891 0.977986L5.51188 0.568033ZM0.601198 3.51993L0.601196 3.51993C0.331923 3.80067 0.0459524 4.10208 0.0459524 4.5C0.0459524 4.89792 0.331921 5.19929 0.601198 5.48007L0.601962 5.48087C0.677262 5.55939 0.755188 5.64064 0.821692 5.72031C0.888094 5.79986 0.945675 5.88078 0.977986 5.95891C1.00801 6.03147 1.02286 6.12463 1.03099 6.22305C1.03914 6.32187 1.04078 6.43032 1.04236 6.53507L1.04237 6.53586C1.04835 6.93206 1.05691 7.35591 1.3505 7.6495C1.64409 7.94309 2.06794 7.95164 2.46414 7.95763L2.46492 7.95764C2.56967 7.95922 2.67813 7.96086 2.77695 7.96901C2.87537 7.97714 2.96853 7.99199 3.04109 8.02201C3.11919 8.05432 3.20012 8.1119 3.27967 8.17831C3.35944 8.24488 3.44079 8.32291 3.51939 8.39829L3.51993 8.3988L3.48812 8.43197L3.51993 8.3988C3.80067 8.66808 4.10208 8.95405 4.5 8.95405C4.89792 8.95405 5.19929 8.66808 5.48007 8.3988L5.48088 8.39802C5.5594 8.32273 5.64065 8.24481 5.72031 8.17831C5.79986 8.11191 5.88078 8.05432 5.95891 8.02201C6.03147 7.99199 6.12463 7.97714 6.22305 7.96901C6.32187 7.96086 6.43033 7.95922 6.53508 7.95764L6.53586 7.95763C6.93206 7.95164 7.35591 7.94309 7.6495 7.6495C7.94309 7.35591 7.95164 6.93206 7.95763 6.53586L7.95764 6.53508C7.95922 6.43033 7.96086 6.32187 7.96901 6.22305C7.97714 6.12463 7.99199 6.03147 8.02201 5.95891C8.05432 5.88081 8.1119 5.79988 8.17831 5.72033C8.24488 5.64056 8.32291 5.55921 8.39829 5.48061L8.3988 5.48007L8.43197 5.51188L8.3988 5.48007C8.66808 5.19933 8.95405 4.89792 8.95405 4.5C8.95405 4.10208 8.66808 3.80071 8.3988 3.51993L8.39802 3.51911C8.32273 3.4406 8.24481 3.35935 8.17831 3.27969C8.11191 3.20014 8.05432 3.11922 8.02201 3.04109C7.99199 2.96853 7.97714 2.87537 7.96901 2.77695C7.96086 2.67813 7.95922 2.56967 7.95764 2.46492L7.95763 2.46414C7.95164 2.06794 7.94309 1.64409 7.6495 1.3505C7.35591 1.05691 6.93206 1.04835 6.53586 1.04237L6.53507 1.04236C6.43032 1.04078 6.32187 1.03914 6.22305 1.03099L0.601198 3.51993ZM0.601198 3.51993L0.601743 3.51936M0.601198 3.51993L0.601743 3.51936M3.68878 6.01823L3.65705 6.05147L2.4785 4.92649C2.4785 4.92648 2.47849 4.92648 2.47849 4.92647C2.44358 4.89317 2.41556 4.85332 2.39605 4.80919C2.37654 4.76505 2.36591 4.7175 2.36478 4.66926C2.36365 4.62102 2.37203 4.57303 2.38945 4.52802C2.40687 4.48302 2.43298 4.44189 2.4663 4.40698C2.49962 4.37207 2.53949 4.34407 2.58363 4.32457C2.62777 4.30508 2.67532 4.29447 2.72356 4.29335C2.77181 4.29224 2.8198 4.30064 2.86479 4.31807C2.90979 4.33551 2.95091 4.36164 2.98581 4.39497M3.68878 6.01823L2.95407 4.4282M3.68878 6.01823L3.65705 6.05147C3.72539 6.1167 3.81623 6.1531 3.9107 6.1531C4.00517 6.1531 4.09601 6.1167 4.16435 6.05147L4.13262 6.01823L4.16435 6.05147L6.5215 3.80149C6.5215 3.80148 6.5215 3.80148 6.52151 3.80147C6.55642 3.76817 6.58443 3.72832 6.60395 3.68419C6.62346 3.64005 6.63408 3.5925 6.63522 3.54426C6.63635 3.49602 6.62797 3.44803 6.61055 3.40302C6.59313 3.35802 6.56702 3.31689 6.5337 3.28198C6.50038 3.24707 6.46051 3.21907 6.41637 3.19958C6.37223 3.18008 6.32468 3.16947 6.27644 3.16835C6.22819 3.16724 6.1802 3.17564 6.13521 3.19307C6.09021 3.21051 6.0491 3.23663 6.0142 3.26996L6.04593 3.3032L6.01419 3.26997M3.68878 6.01823L6.01419 3.26997M2.98581 4.39497L2.95407 4.4282M2.98581 4.39497L2.9858 4.39496L2.95407 4.4282M2.98581 4.39497L3.9107 5.27783M2.95407 4.4282L3.9107 5.34136M3.9107 5.27783L3.87897 5.30812L3.9107 5.34136M3.9107 5.27783L6.01419 3.26997M3.9107 5.27783L3.94243 5.30812L3.9107 5.34136M3.9107 5.34136L6.01419 3.26997M0.601743 3.51936C0.677113 3.44077 0.755125 3.35943 0.821694 3.27967M0.601743 3.51936L0.821694 3.27967M0.821694 3.27967C0.888095 3.20012 0.945675 3.11919 0.977986 3.04109L0.821694 3.27967ZM2.77695 1.03099C2.87537 1.02287 2.96852 1.00801 3.04108 0.97799L0.977988 3.04108C1.00801 2.96853 1.02286 2.87537 1.03099 2.77695C1.03914 2.67813 1.04078 2.56968 1.04236 2.46493L1.04237 2.46414C1.04835 2.06794 1.05691 1.64409 1.3505 1.3505C1.64409 1.05691 2.06794 1.04835 2.46414 1.04237L2.46493 1.04236C2.56968 1.04078 2.67813 1.03914 2.77695 1.03099Z" fill="#FFA45A" stroke="#5A5A5A" stroke-width="0.0919048"/>
</svg>
