<svg width="24" height="24" viewBox="0 0 24 24" fill="none" xmlns="http://www.w3.org/2000/svg">
<path d="M11.8883 5.09961C10.6152 5.09961 9.39434 5.60532 8.49416 6.5055L8.30594 6.69372C7.40576 7.5939 6.90005 8.8148 6.90005 10.0878V10.9693C6.90005 12.5895 6.2564 14.1434 5.11069 15.2891C4.91179 15.488 4.80005 15.7578 4.80005 16.0391C4.80005 16.6248 5.27488 17.0996 5.86061 17.0996H18.1395C18.7252 17.0996 19.2 16.6248 19.2 16.0391C19.2 15.7578 19.0883 15.488 18.8894 15.2891C17.7437 14.1434 17.1 12.5895 17.1 10.9693V10.0878C17.1 8.81479 16.5943 7.5939 15.6942 6.69372L15.5059 6.5055C14.6058 5.60532 13.3849 5.09961 12.1118 5.09961M11.8883 5.09961H12.1118M11.8883 5.09961C11.7245 5.09961 11.5615 5.10798 11.4 5.12449V4.19961C11.4 3.86824 11.6687 3.59961 12 3.59961C12.3314 3.59961 12.6 3.86824 12.6 4.19961V5.12449C12.4386 5.10798 12.2756 5.09961 12.1118 5.09961M9.92159 17.9996C9.92159 17.6826 9.99377 17.3759 10.1265 17.0996H13.8736C14.0063 17.3759 14.0785 17.6826 14.0785 17.9996C14.0785 18.7422 13.6824 19.4283 13.0393 19.7996C12.3962 20.1709 11.6039 20.1709 10.9608 19.7996C10.3177 19.4283 9.92159 18.7422 9.92159 17.9996Z" stroke="#5A5A5A" stroke-linecap="round" stroke-linejoin="round"/>
</svg>
