<svg width="20" height="20" viewBox="0 0 20 20" fill="none" xmlns="http://www.w3.org/2000/svg">
<path d="M17.8125 10.3125H15.3125V6.91407H15.9375C15.9969 6.91409 16.0551 6.89719 16.1052 6.86533C16.1553 6.83348 16.1954 6.78799 16.2206 6.73421C16.2458 6.68042 16.2551 6.62057 16.2476 6.56166C16.24 6.50274 16.2157 6.44721 16.1777 6.40157L14.6152 4.52657C14.5859 4.49136 14.5492 4.46303 14.5076 4.44358C14.4661 4.42414 14.4208 4.41406 14.375 4.41406C14.3292 4.41406 14.2839 4.42414 14.2424 4.44358C14.2008 4.46303 14.1641 4.49136 14.1348 4.52657L12.5723 6.40157C12.5343 6.44721 12.51 6.50274 12.5024 6.56166C12.4949 6.62057 12.5042 6.68042 12.5294 6.73421C12.5546 6.78799 12.5947 6.83348 12.6448 6.86533C12.6949 6.89719 12.7531 6.91409 12.8125 6.91407H13.4375V10.3125H6.5625V5.62501H7.1875C7.2469 5.62503 7.30507 5.60812 7.35521 5.57627C7.40534 5.54441 7.44536 5.49893 7.47057 5.44514C7.49578 5.39136 7.50514 5.33151 7.49756 5.27259C7.48997 5.21368 7.46575 5.15815 7.42773 5.11251L5.86523 3.23751C5.83588 3.20229 5.79915 3.17396 5.75764 3.15452C5.71612 3.13508 5.67084 3.125 5.625 3.125C5.57916 3.125 5.53388 3.13508 5.49236 3.15452C5.45085 3.17396 5.41412 3.20229 5.38477 3.23751L3.82227 5.11251C3.78425 5.15815 3.76003 5.21368 3.75244 5.27259C3.74486 5.33151 3.75422 5.39136 3.77943 5.44514C3.80464 5.49893 3.84466 5.54441 3.89479 5.57627C3.94493 5.60812 4.0031 5.62503 4.0625 5.62501H4.6875V10.3125H2.1875C2.10462 10.3125 2.02513 10.3454 1.96653 10.404C1.90792 10.4626 1.875 10.5421 1.875 10.625V19.375C1.875 19.4579 1.90792 19.5374 1.96653 19.596C2.02513 19.6546 2.10462 19.6875 2.1875 19.6875H17.8125C17.8954 19.6875 17.9749 19.6546 18.0335 19.596C18.0921 19.5374 18.125 19.4579 18.125 19.375V10.625C18.125 10.5421 18.0921 10.4626 18.0335 10.404C17.9749 10.3454 17.8954 10.3125 17.8125 10.3125ZM14.375 5.21485L15.2703 6.28907H15C14.9171 6.28907 14.8376 6.322 14.779 6.3806C14.7204 6.43921 14.6875 6.51869 14.6875 6.60157V10.3125H14.0625V6.60157C14.0625 6.51869 14.0296 6.43921 13.971 6.3806C13.9124 6.322 13.8329 6.28907 13.75 6.28907H13.4797L14.375 5.21485ZM5.625 3.92579L6.52031 5.00001H6.25C6.16712 5.00001 6.08763 5.03293 6.02903 5.09154C5.97042 5.15014 5.9375 5.22963 5.9375 5.31251V10.3125H5.3125V5.31251C5.3125 5.22963 5.27958 5.15014 5.22097 5.09154C5.16237 5.03293 5.08288 5.00001 5 5.00001H4.72969L5.625 3.92579ZM17.5 19.0625H2.5V10.9375H17.5V19.0625Z" fill="#43A048"/>
<path d="M10 17.1875C10.4326 17.1875 10.8556 17.0592 11.2153 16.8188C11.575 16.5785 11.8554 16.2368 12.021 15.8371C12.1866 15.4374 12.2299 14.9976 12.1455 14.5732C12.0611 14.1489 11.8527 13.7591 11.5468 13.4532C11.2409 13.1473 10.8511 12.9389 10.4268 12.8545C10.0024 12.7701 9.56259 12.8134 9.16288 12.979C8.76317 13.1446 8.42153 13.425 8.18116 13.7847C7.94079 14.1444 7.8125 14.5674 7.8125 15C7.81315 15.58 8.04383 16.136 8.45392 16.5461C8.86402 16.9562 9.42004 17.1868 10 17.1875ZM10 13.4375C10.309 13.4375 10.6111 13.5291 10.8681 13.7008C11.125 13.8725 11.3253 14.1165 11.4436 14.4021C11.5618 14.6876 11.5928 15.0017 11.5325 15.3048C11.4722 15.6079 11.3234 15.8863 11.1049 16.1049C10.8863 16.3234 10.6079 16.4722 10.3048 16.5325C10.0017 16.5928 9.68757 16.5618 9.40206 16.4436C9.11655 16.3253 8.87252 16.125 8.70083 15.8681C8.52914 15.6111 8.4375 15.309 8.4375 15C8.43797 14.5857 8.60273 14.1886 8.89566 13.8957C9.18858 13.6027 9.58574 13.438 10 13.4375Z" fill="#43A048"/>
<path d="M4.375 11.5625C4.37463 11.8939 4.24281 12.2116 4.00847 12.446C3.77413 12.6803 3.45641 12.8121 3.125 12.8125C3.04212 12.8125 2.96263 12.8454 2.90403 12.904C2.84542 12.9626 2.8125 13.0421 2.8125 13.125V16.875C2.8125 16.9579 2.84542 17.0374 2.90403 17.096C2.96263 17.1546 3.04212 17.1875 3.125 17.1875C3.45641 17.1879 3.77413 17.3197 4.00847 17.554C4.24281 17.7884 4.37463 18.1061 4.375 18.4375C4.375 18.5204 4.40792 18.5999 4.46653 18.6585C4.52513 18.7171 4.60462 18.75 4.6875 18.75H15.3125C15.3954 18.75 15.4749 18.7171 15.5335 18.6585C15.5921 18.5999 15.625 18.5204 15.625 18.4375C15.6254 18.1061 15.7572 17.7884 15.9915 17.554C16.2259 17.3197 16.5436 17.1879 16.875 17.1875C16.9579 17.1875 17.0374 17.1546 17.096 17.096C17.1546 17.0374 17.1875 16.9579 17.1875 16.875V13.125C17.1875 13.0421 17.1546 12.9626 17.096 12.904C17.0374 12.8454 16.9579 12.8125 16.875 12.8125C16.5436 12.8121 16.2259 12.6803 15.9915 12.446C15.7572 12.2116 15.6254 11.8939 15.625 11.5625C15.625 11.4796 15.5921 11.4001 15.5335 11.3415C15.4749 11.2829 15.3954 11.25 15.3125 11.25H4.6875C4.60462 11.25 4.52513 11.2829 4.46653 11.3415C4.40792 11.4001 4.375 11.4796 4.375 11.5625ZM15.0261 11.875C15.0916 12.2586 15.2746 12.6125 15.5498 12.8877C15.825 13.1629 16.1789 13.3459 16.5625 13.4114V16.5885C16.1789 16.6541 15.825 16.8371 15.5498 17.1123C15.2746 17.3875 15.0916 17.7414 15.0261 18.125H4.97395C4.9084 17.7414 4.7254 17.3875 4.45019 17.1123C4.17498 16.8371 3.82114 16.6541 3.4375 16.5885V13.4114C3.82114 13.3459 4.17498 13.1629 4.45019 12.8877C4.7254 12.6125 4.9084 12.2586 4.97395 11.875H15.0261ZM8.4375 2.81249H9.0625V7.81249C9.0625 7.89537 9.09542 7.97486 9.15403 8.03346C9.21263 8.09207 9.29212 8.12499 9.375 8.12499H10.625C10.7079 8.12499 10.7874 8.09207 10.846 8.03346C10.9046 7.97486 10.9375 7.89537 10.9375 7.81249V2.81249H11.5625C11.6219 2.81249 11.6801 2.79556 11.7302 2.7637C11.7803 2.73183 11.8203 2.68633 11.8455 2.63255C11.8707 2.57876 11.88 2.51891 11.8724 2.46001C11.8648 2.4011 11.8406 2.34558 11.8026 2.29995L10.2401 0.424953C10.2108 0.389757 10.174 0.361439 10.1326 0.342006C10.0911 0.322573 10.0458 0.3125 10 0.3125C9.95419 0.3125 9.90893 0.322573 9.86744 0.342006C9.82596 0.361439 9.78925 0.389757 9.75992 0.424953L8.19742 2.29995C8.1594 2.34558 8.13517 2.4011 8.12757 2.46001C8.11998 2.51891 8.12932 2.57876 8.15451 2.63255C8.17971 2.68633 8.21971 2.73183 8.26982 2.7637C8.31994 2.79556 8.37811 2.81249 8.4375 2.81249ZM10 1.11327L10.8953 2.18749H10.625C10.5421 2.18749 10.4626 2.22042 10.404 2.27902C10.3454 2.33763 10.3125 2.41711 10.3125 2.49999V7.49999H9.6875V2.49999C9.6875 2.41711 9.65458 2.33763 9.59597 2.27902C9.53737 2.22042 9.45788 2.18749 9.375 2.18749H9.10469L10 1.11327ZM10.625 8.43749H9.375C9.29212 8.43749 9.21263 8.47042 9.15403 8.52902C9.09542 8.58763 9.0625 8.66711 9.0625 8.74999V9.68749C9.0625 9.77037 9.09542 9.84986 9.15403 9.90846C9.21263 9.96707 9.29212 9.99999 9.375 9.99999H10.625C10.7079 9.99999 10.7874 9.96707 10.846 9.90846C10.9046 9.84986 10.9375 9.77037 10.9375 9.68749V8.74999C10.9375 8.66711 10.9046 8.58763 10.846 8.52902C10.7874 8.47042 10.7079 8.43749 10.625 8.43749ZM10.3125 9.37499H9.6875V9.06249H10.3125V9.37499Z" fill="#43A048"/>
</svg>
