<svg width="16" height="16" viewBox="0 0 16 16" fill="none" xmlns="http://www.w3.org/2000/svg">
<g clip-path="url(#clip0_0_138)">
<path d="M3.5 4C3.63261 4 3.75979 4.05268 3.85355 4.14645C3.94732 4.24021 4 4.36739 4 4.5H4.5C4.49917 4.27895 4.42512 4.0644 4.28943 3.88989C4.15373 3.71539 3.96404 3.59076 3.75 3.5355V3H3.25V3.5355C3.01459 3.59609 2.80939 3.74051 2.67291 3.94166C2.53643 4.14281 2.47806 4.38685 2.50874 4.62799C2.53943 4.86912 2.65707 5.09077 2.83958 5.25132C3.02209 5.41188 3.25692 5.5003 3.5 5.5C3.59889 5.5 3.69556 5.52932 3.77779 5.58427C3.86001 5.63921 3.9241 5.7173 3.96194 5.80866C3.99978 5.90002 4.00969 6.00055 3.99039 6.09755C3.9711 6.19454 3.92348 6.28363 3.85355 6.35355C3.78363 6.42348 3.69454 6.4711 3.59755 6.49039C3.50055 6.50969 3.40002 6.49978 3.30866 6.46194C3.2173 6.4241 3.13921 6.36001 3.08427 6.27779C3.02932 6.19556 3 6.09889 3 6H2.5C2.50083 6.22105 2.57488 6.4356 2.71057 6.61011C2.84627 6.78461 3.03596 6.90924 3.25 6.9645V7.5H3.75V6.9645C3.98541 6.90391 4.19061 6.75949 4.32709 6.55834C4.46357 6.35719 4.52194 6.11315 4.49126 5.87201C4.46057 5.63088 4.34293 5.40923 4.16042 5.24868C3.97791 5.08812 3.74308 4.9997 3.5 5C3.36739 5 3.24021 4.94732 3.14645 4.85355C3.05268 4.75979 3 4.63261 3 4.5C3 4.36739 3.05268 4.24021 3.14645 4.14645C3.24021 4.05268 3.36739 4 3.5 4ZM12.5 9.5C12.6326 9.5 12.7598 9.55268 12.8536 9.64645C12.9473 9.74021 13 9.86739 13 10H13.5C13.4992 9.77895 13.4251 9.5644 13.2894 9.38989C13.1537 9.21539 12.964 9.09076 12.75 9.0355V8.5H12.25V9.0355C12.0146 9.09609 11.8094 9.24051 11.6729 9.44166C11.5364 9.64281 11.4781 9.88685 11.5087 10.128C11.5394 10.3691 11.6571 10.5908 11.8396 10.7513C12.0221 10.9119 12.2569 11.0003 12.5 11C12.5989 11 12.6956 11.0293 12.7778 11.0843C12.86 11.1392 12.9241 11.2173 12.9619 11.3087C12.9998 11.4 13.0097 11.5006 12.9904 11.5975C12.9711 11.6945 12.9235 11.7836 12.8536 11.8536C12.7836 11.9235 12.6945 11.9711 12.5975 11.9904C12.5006 12.0097 12.4 11.9998 12.3087 11.9619C12.2173 11.9241 12.1392 11.86 12.0843 11.7778C12.0293 11.6956 12 11.5989 12 11.5H11.5C11.5008 11.7211 11.5749 11.9356 11.7106 12.1101C11.8463 12.2846 12.036 12.4092 12.25 12.4645V13H12.75V12.4645C12.9854 12.4039 13.1906 12.2595 13.3271 12.0583C13.4636 11.8572 13.5219 11.6131 13.4913 11.372C13.4606 11.1309 13.3429 10.9092 13.1604 10.7487C12.9779 10.5881 12.7431 10.4997 12.5 10.5C12.3674 10.5 12.2402 10.4473 12.1464 10.3536C12.0527 10.2598 12 10.1326 12 10C12 9.86739 12.0527 9.74021 12.1464 9.64645C12.2402 9.55268 12.3674 9.5 12.5 9.5Z" fill="#5A5A5A"/>
<path d="M12.5 7.5C12.4165 7.50096 12.3331 7.50522 12.25 7.51275V6H12.75V6.75C12.75 6.79782 12.7637 6.84463 12.7895 6.88488C12.8153 6.92514 12.8521 6.95715 12.8956 6.97713C12.939 6.9971 12.9873 7.00419 13.0346 6.99757C13.082 6.99094 13.1265 6.97088 13.1628 6.93975L14.9128 5.43975C14.9401 5.41628 14.9621 5.38717 14.9771 5.35442C14.9922 5.32167 15 5.28605 15 5.25C15 5.21395 14.9922 5.17833 14.9771 5.14558C14.9621 5.11283 14.9401 5.08372 14.9128 5.06025L13.1628 3.56025C13.1265 3.52912 13.082 3.50906 13.0346 3.50243C12.9873 3.49581 12.939 3.5029 12.8956 3.52287C12.8521 3.54285 12.8153 3.57486 12.7895 3.61512C12.7637 3.65537 12.75 3.70218 12.75 3.75V4.5H12.25V1.75C12.2496 1.3523 12.0914 0.970997 11.8102 0.689778C11.529 0.40856 11.1477 0.250397 10.75 0.25H5.25C4.8523 0.250397 4.471 0.40856 4.18978 0.689778C3.90856 0.970997 3.7504 1.3523 3.75 1.75V2.01275C3.66687 2.00522 3.58347 2.00096 3.5 2C2.63805 2 1.8114 2.34241 1.2019 2.9519C0.59241 3.5614 0.25 4.38805 0.25 5.25C0.25 6.11195 0.59241 6.9386 1.2019 7.5481C1.8114 8.15759 2.63805 8.5 3.5 8.5C3.58347 8.49904 3.66687 8.49479 3.75 8.48725V10.25H3.25V9.5C3.25 9.45218 3.23628 9.40537 3.21048 9.36512C3.18468 9.32486 3.14787 9.29285 3.10442 9.27287C3.06098 9.2529 3.01272 9.24581 2.96536 9.25243C2.91801 9.25906 2.87355 9.27912 2.83725 9.31025L1.08725 10.8103C1.05989 10.8337 1.03793 10.8628 1.02287 10.8956C1.00782 10.9283 1.00002 10.964 1.00002 11C1.00002 11.036 1.00782 11.0717 1.02287 11.1044C1.03793 11.1372 1.05989 11.1663 1.08725 11.1897L2.83725 12.6897C2.87355 12.7209 2.91801 12.7409 2.96536 12.7476C3.01272 12.7542 3.06098 12.7471 3.10442 12.7271C3.14787 12.7072 3.18468 12.6751 3.21048 12.6349C3.23628 12.5946 3.25 12.5478 3.25 12.5V11.75H3.75V14.25C3.7504 14.6477 3.90856 15.029 4.18978 15.3102C4.471 15.5914 4.8523 15.7496 5.25 15.75H10.75C11.1477 15.7496 11.529 15.5914 11.8102 15.3102C12.0914 15.029 12.2496 14.6477 12.25 14.25V13.9873C12.3331 13.9948 12.4165 13.999 12.5 14C13.362 14 14.1886 13.6576 14.7981 13.0481C15.4076 12.4386 15.75 11.612 15.75 10.75C15.75 9.88805 15.4076 9.0614 14.7981 8.4519C14.1886 7.84241 13.362 7.5 12.5 7.5ZM13 5C13.0663 5 13.1299 4.97366 13.1768 4.92678C13.2237 4.87989 13.25 4.8163 13.25 4.75V4.2935L14.3658 5.25L13.25 6.2065V5.75C13.25 5.6837 13.2237 5.62011 13.1768 5.57322C13.1299 5.52634 13.0663 5.5 13 5.5H8.75V5H13ZM10.1465 0.75L9.6465 1.25H6.3535L5.8535 0.75H10.1465ZM0.75 5.25C0.75 4.7061 0.911285 4.17442 1.21346 3.72218C1.51563 3.26995 1.94512 2.91747 2.44762 2.70933C2.95012 2.50119 3.50305 2.44673 4.0365 2.55284C4.56995 2.65895 5.05995 2.92086 5.44454 3.30546C5.82914 3.69005 6.09105 4.18005 6.19716 4.7135C6.30327 5.24695 6.24881 5.79988 6.04067 6.30238C5.83253 6.80488 5.48005 7.23437 5.02782 7.53654C4.57558 7.83872 4.0439 8 3.5 8C2.77092 7.99914 2.07195 7.70913 1.55641 7.19359C1.04087 6.67805 0.75086 5.97908 0.75 5.25ZM3 11.25C2.9337 11.25 2.87011 11.2763 2.82322 11.3232C2.77634 11.3701 2.75 11.4337 2.75 11.5V11.9565L1.63425 11L2.75 10.0435V10.5C2.75 10.5663 2.77634 10.6299 2.82322 10.6768C2.87011 10.7237 2.9337 10.75 3 10.75H7.25V11.25H3ZM9.75 15.25H6.25V15C6.25 14.9337 6.27634 14.8701 6.32322 14.8232C6.37011 14.7763 6.4337 14.75 6.5 14.75H9.5C9.5663 14.75 9.62989 14.7763 9.67678 14.8232C9.72366 14.8701 9.75 14.9337 9.75 15V15.25ZM11.75 14.25C11.75 14.5152 11.6446 14.7696 11.4571 14.9571C11.2696 15.1446 11.0152 15.25 10.75 15.25H10.25V15C10.25 14.8011 10.171 14.6103 10.0303 14.4697C9.88968 14.329 9.69891 14.25 9.5 14.25H6.5C6.30109 14.25 6.11032 14.329 5.96967 14.4697C5.82902 14.6103 5.75 14.8011 5.75 15V15.25H5.25C4.98478 15.25 4.73043 15.1446 4.54289 14.9571C4.35536 14.7696 4.25 14.5152 4.25 14.25V11.75H7.5C7.5663 11.75 7.62989 11.7237 7.67678 11.6768C7.72366 11.6299 7.75 11.5663 7.75 11.5V10.5C7.75 10.4337 7.72366 10.3701 7.67678 10.3232C7.62989 10.2763 7.5663 10.25 7.5 10.25H4.25V8.40925C4.96157 8.24111 5.59554 7.83768 6.04922 7.2643C6.50291 6.69091 6.74974 5.98116 6.74974 5.25C6.74974 4.51884 6.50291 3.80909 6.04922 3.2357C5.59554 2.66232 4.96157 2.25889 4.25 2.09075V1.75C4.25081 1.5018 4.34407 1.26281 4.51159 1.07967C4.67911 0.896528 4.90886 0.782379 5.156 0.7595L6.07325 1.67675C6.12012 1.72364 6.1837 1.74999 6.25 1.75H9.75C9.8163 1.74999 9.87988 1.72364 9.92675 1.67675L10.844 0.7595C11.0911 0.782379 11.3209 0.896528 11.4884 1.07967C11.6559 1.26281 11.7492 1.5018 11.75 1.75V4.5H8.5C8.4337 4.5 8.37011 4.52634 8.32322 4.57322C8.27634 4.62011 8.25 4.6837 8.25 4.75V5.75C8.25 5.8163 8.27634 5.87989 8.32322 5.92678C8.37011 5.97366 8.4337 6 8.5 6H11.75V7.59075C11.0384 7.75889 10.4045 8.16232 9.95078 8.7357C9.49709 9.30909 9.25026 10.0188 9.25026 10.75C9.25026 11.4812 9.49709 12.1909 9.95078 12.7643C10.4045 13.3377 11.0384 13.7411 11.75 13.9093V14.25ZM12.5 13.5C11.9561 13.5 11.4244 13.3387 10.9722 13.0365C10.5199 12.7344 10.1675 12.3049 9.95933 11.8024C9.75119 11.2999 9.69673 10.747 9.80284 10.2135C9.90895 9.68005 10.1709 9.19005 10.5555 8.80546C10.9401 8.42086 11.4301 8.15895 11.9635 8.05284C12.497 7.94673 13.0499 8.00119 13.5524 8.20933C14.0549 8.41747 14.4844 8.76995 14.7865 9.22218C15.0887 9.67442 15.25 10.2061 15.25 10.75C15.2491 11.4791 14.9591 12.1781 14.4436 12.6936C13.9281 13.2091 13.2291 13.4991 12.5 13.5Z" fill="#5A5A5A"/>
<path d="M7 3.5H10V4H7V3.5ZM6 12.25H9V12.75H6V12.25ZM8.5 2.5H10.5V3H8.5V2.5ZM7.5 13.2142H9.5V13.7142H7.5V13.2142Z" fill="#5A5A5A"/>
</g>
<defs>
<clipPath id="clip0_0_138">
<rect width="16" height="16" fill="white"/>
</clipPath>
</defs>
</svg>
