<svg width="12" height="12" viewBox="0 0 12 12" fill="none" xmlns="http://www.w3.org/2000/svg">
<path d="M9.854 3.14689C9.90056 3.19334 9.9375 3.24851 9.96271 3.30926C9.98792 3.37001 10.0009 3.43513 10.0009 3.50089C10.0009 3.56666 9.98792 3.63178 9.96271 3.69253C9.9375 3.75327 9.90056 3.80845 9.854 3.85489L5.354 8.35489C5.30755 8.40146 5.25238 8.4384 5.19163 8.46361C5.13089 8.48881 5.06577 8.50179 5 8.50179C4.93423 8.50179 4.86911 8.48881 4.80836 8.46361C4.74762 8.4384 4.69244 8.40146 4.646 8.35489L2.646 6.35489C2.55211 6.26101 2.49937 6.13367 2.49937 6.00089C2.49937 5.86812 2.55211 5.74078 2.646 5.64689C2.73988 5.55301 2.86722 5.50026 3 5.50026C3.13277 5.50026 3.26011 5.55301 3.354 5.64689L5 7.29389L9.146 3.14689C9.19244 3.10033 9.24762 3.06339 9.30836 3.03818C9.36911 3.01297 9.43423 3 9.5 3C9.56577 3 9.63089 3.01297 9.69163 3.03818C9.75238 3.06339 9.80755 3.10033 9.854 3.14689Z" fill="white"/>
</svg>
