<svg width="16" height="16" viewBox="0 0 16 16" fill="none" xmlns="http://www.w3.org/2000/svg">
<g clip-path="url(#clip0_0_152)">
<path d="M14.4668 3.80799H13.7343V1.89302C13.7366 1.64554 13.6818 1.40087 13.5741 1.17805C13.4664 0.955225 13.3087 0.760253 13.1134 0.608301C12.9211 0.45259 12.6954 0.343361 12.454 0.289116C12.2126 0.234871 11.9619 0.237073 11.7214 0.295551L1.38359 2.70596C0.747937 2.85458 0.25 3.49164 0.25 4.1563V13.6222C0.250273 13.9622 0.385398 14.2882 0.62573 14.5287C0.866063 14.7692 1.19198 14.9046 1.53197 14.9051H5.95134C6.49551 15.4463 7.23182 15.7502 7.99934 15.7502C8.76686 15.7502 9.50317 15.4463 10.0473 14.9051H14.4668C14.8069 14.9046 15.1329 14.7694 15.3734 14.5289C15.6139 14.2884 15.7492 13.9623 15.7496 13.6222V5.09099C15.7493 4.75085 15.614 4.42475 15.3735 4.18423C15.133 3.9437 14.8069 3.80839 14.4668 3.80799ZM7.99937 14.8126C7.6094 14.8127 7.22818 14.697 6.90393 14.4804C6.57968 14.2637 6.32695 13.9558 6.17772 13.5955C6.02848 13.2352 5.98943 12.8387 6.06551 12.4563C6.14159 12.0738 6.32938 11.7224 6.60514 11.4467C6.88089 11.1709 7.23223 10.9832 7.61471 10.9071C7.99719 10.831 8.39364 10.8701 8.75392 11.0193C9.11421 11.1686 9.42215 11.4213 9.6388 11.7455C9.85544 12.0698 9.97107 12.451 9.97106 12.841C9.97046 13.3637 9.76253 13.8649 9.3929 14.2345C9.02327 14.6041 8.52211 14.812 7.99937 14.8126ZM14.4668 13.9676H10.6815C10.8673 13.5253 10.9408 13.044 10.8956 12.5665C10.8504 12.089 10.6878 11.63 10.4223 11.2306C10.1569 10.8311 9.79671 10.5034 9.37398 10.2768C8.95124 10.0501 8.47902 9.93153 7.99936 9.93153C7.5197 9.93153 7.04748 10.0501 6.62474 10.2768C6.202 10.5034 5.84186 10.8311 5.57638 11.2306C5.3109 11.63 5.14831 12.089 5.1031 12.5665C5.05788 13.044 5.13144 13.5253 5.31722 13.9676H1.53197C1.44087 13.9662 1.35389 13.9294 1.28955 13.8649C1.22521 13.8004 1.18859 13.7133 1.1875 13.6222V4.1563C1.1875 3.92505 1.38269 3.6688 1.59687 3.6188L11.9347 1.20849C12.0376 1.18209 12.1453 1.1805 12.2489 1.20386C12.3525 1.22722 12.4491 1.27486 12.5307 1.34286C12.6155 1.40701 12.6837 1.49033 12.73 1.58599C12.7763 1.68165 12.7992 1.78691 12.7968 1.89314V3.80811H3.12113C2.9968 3.80811 2.87758 3.8575 2.78967 3.94541C2.70176 4.03331 2.65238 4.15254 2.65238 4.27686C2.65238 4.40118 2.70176 4.52041 2.78967 4.60832C2.87758 4.69623 2.9968 4.74561 3.12113 4.74561H14.4668C14.558 4.74682 14.6451 4.78359 14.7097 4.84811C14.7742 4.91262 14.8109 4.99977 14.8121 5.09099V6.82693H12.0263C11.6049 6.8274 11.201 6.995 10.903 7.29295C10.6051 7.5909 10.4375 7.99487 10.437 8.41624V10.0701C10.4376 10.4913 10.6052 10.8951 10.9032 11.1929C11.2012 11.4907 11.6051 11.6581 12.0263 11.6585H14.8121V13.6222C14.8109 13.7134 14.7741 13.8006 14.7096 13.8651C14.6451 13.9296 14.558 13.9663 14.4668 13.9676ZM14.8121 7.76443V10.721H12.0263C11.8536 10.7209 11.688 10.6523 11.5658 10.5303C11.4436 10.4083 11.3748 10.2428 11.3745 10.0701V8.41624C11.3747 8.24343 11.4434 8.07775 11.5656 7.95556C11.6878 7.83336 11.8535 7.76462 12.0263 7.76443H14.8121ZM12.6161 9.24271C12.6161 9.11839 12.6655 8.99916 12.7534 8.91125C12.8413 8.82334 12.9606 8.77396 13.0849 8.77396H13.1017C13.226 8.77396 13.3453 8.82334 13.4332 8.91125C13.5211 8.99916 13.5705 9.11839 13.5705 9.24271C13.5705 9.36703 13.5211 9.48626 13.4332 9.57416C13.3453 9.66207 13.226 9.71146 13.1017 9.71146H13.0849C12.9606 9.71146 12.8413 9.66207 12.7534 9.57416C12.6655 9.48626 12.6161 9.36703 12.6161 9.24271ZM9.33887 12.841C9.33887 12.9653 9.28949 13.0845 9.20158 13.1724C9.11367 13.2604 8.99444 13.3097 8.87012 13.3097H8.46812V13.7117C8.46812 13.8361 8.41874 13.9553 8.33083 14.0432C8.24292 14.1311 8.12369 14.1805 7.99937 14.1805C7.87505 14.1805 7.75583 14.1311 7.66792 14.0432C7.58001 13.9553 7.53062 13.8361 7.53062 13.7117V13.3097H7.12947C7.00515 13.3097 6.88592 13.2604 6.79801 13.1724C6.7101 13.0845 6.66072 12.9653 6.66072 12.841C6.66072 12.7167 6.7101 12.5974 6.79801 12.5095C6.88592 12.4216 7.00515 12.3722 7.12947 12.3722H7.53062V11.9702C7.53062 11.8459 7.58001 11.7266 7.66792 11.6387C7.75583 11.5508 7.87505 11.5014 7.99937 11.5014C8.12369 11.5014 8.24292 11.5508 8.33083 11.6387C8.41874 11.7266 8.46812 11.8459 8.46812 11.9702V12.3722H8.87012C8.99444 12.3722 9.11367 12.4216 9.20158 12.5095C9.28949 12.5974 9.33887 12.7167 9.33887 12.841Z" fill="#5A5A5A"/>
</g>
<defs>
<clipPath id="clip0_0_152">
<rect width="16" height="16" fill="white"/>
</clipPath>
</defs>
</svg>
