<svg width="24" height="24" viewBox="0 0 24 24" fill="none" xmlns="http://www.w3.org/2000/svg">
<path fill-rule="evenodd" clip-rule="evenodd" d="M13.558 5.53405C13.139 5.13191 12.5807 4.90736 12 4.90736C11.4192 4.90736 10.861 5.13191 10.442 5.53405L5.81599 9.97405C5.70259 10.0828 5.62632 10.2245 5.59799 10.379C5.04397 13.4006 5.00306 16.4939 5.47699 19.529L5.58899 20.25H8.56599V14.039C8.56599 13.8401 8.64501 13.6494 8.78566 13.5087C8.92631 13.3681 9.11708 13.289 9.31599 13.289H14.684C14.8829 13.289 15.0737 13.3681 15.2143 13.5087C15.355 13.6494 15.434 13.8401 15.434 14.039V20.25H18.411L18.523 19.53C18.9975 16.4943 18.957 13.4003 18.403 10.378C18.3742 10.2237 18.2976 10.0824 18.184 9.97405L13.558 5.53405ZM9.40399 4.45205C10.1022 3.78221 11.0324 3.4082 12 3.4082C12.9676 3.4082 13.8977 3.78221 14.596 4.45205L19.223 8.89205C19.563 9.21805 19.793 9.64405 19.878 10.108C20.462 13.2958 20.5049 16.5591 20.005 19.761L19.825 20.918C19.7889 21.1499 19.6711 21.3612 19.4929 21.5138C19.3146 21.6664 19.0876 21.7502 18.853 21.75H14.684C14.4851 21.75 14.2943 21.671 14.1537 21.5304C14.013 21.3897 13.934 21.199 13.934 21V14.789H10.066V21C10.066 21.199 9.98697 21.3897 9.84632 21.5304C9.70567 21.671 9.5149 21.75 9.31599 21.75H5.14699C4.91234 21.7502 4.68537 21.6664 4.5071 21.5138C4.32883 21.3612 4.21103 21.1499 4.17499 20.918L3.99499 19.761C3.49504 16.5591 3.53797 13.2958 4.12199 10.108C4.20699 9.64405 4.43699 9.21805 4.77699 8.89105L9.40399 4.45205Z" fill="#18988B"/>
</svg>
