<svg width="38" height="16" viewBox="0 0 38 16" fill="none" xmlns="http://www.w3.org/2000/svg">
<path d="M4.75 10.75H1.75M1.75 10.75C1.75 10.75 4.25 14.25 8 14.25C11.452 14.25 14.25 11.75 14.25 8.75M1.75 10.75V14.25M11.25 5.25H14.25M14.25 5.25C14.25 5.25 11.75 1.75 8 1.75C4.548 1.75 1.75 4.25 1.75 7.25M14.25 5.25V1.75" stroke="#003057" stroke-width="1.5" stroke-linecap="round" stroke-linejoin="round"/>
<path d="M26.6667 14C26.3 14 25.986 13.8693 25.7247 13.608C25.4633 13.3467 25.3329 13.0329 25.3333 12.6667V4H24.6667V2.66667H28V2H32V2.66667H35.3333V4H34.6667V12.6667C34.6667 13.0333 34.536 13.3473 34.2747 13.6087C34.0133 13.87 33.6996 14.0004 33.3333 14H26.6667ZM33.3333 4H26.6667V12.6667H33.3333V4ZM28 11.3333H29.3333V5.33333H28V11.3333ZM30.6667 11.3333H32V5.33333H30.6667V11.3333Z" fill="#F44336"/>
</svg>
