<svg width="16" height="16" viewBox="0 0 16 16" fill="none" xmlns="http://www.w3.org/2000/svg">
<g clip-path="url(#clip0_0_91)">
<path d="M5.46935 6.83597H2.21432C2.06392 6.83597 1.91612 6.87515 1.78547 6.94965C1.65482 7.02415 1.54584 7.13141 1.46926 7.26084L0.504477 8.89134C0.333414 9.18046 0.243164 9.51022 0.243164 9.84616V15.2458C0.243164 15.5327 0.475727 15.7653 0.762602 15.7653H15.2377C15.5245 15.7653 15.7571 15.5327 15.7571 15.2458V9.84616C15.7571 9.51021 15.6668 9.18043 15.4958 8.89131L14.531 7.26081C14.4544 7.13138 14.3454 7.02412 14.2148 6.94962C14.0841 6.87512 13.9363 6.83594 13.7859 6.83594H12.4689M11.3751 6.83597H10.5309" stroke="#5A5A5A" stroke-width="0.75" stroke-miterlimit="10" stroke-linecap="round" stroke-linejoin="round"/>
<path d="M3.40638 9.56966H0.762602C0.475727 9.56966 0.243164 9.80222 0.243164 10.0891V15.2455C0.243164 15.5324 0.475727 15.765 0.762602 15.765H15.2377C15.5245 15.765 15.7571 15.5324 15.7571 15.2455V10.0891C15.7571 9.80222 15.5245 9.56966 15.2377 9.56966H4.50013M9.86888 3.5595C9.37344 3.11456 8.71845 2.84375 8.00013 2.84375C7.36538 2.84375 6.7801 3.05525 6.31063 3.41144M5.58348 4.23109C5.3412 4.64528 5.2022 5.12722 5.2022 5.64169C5.2022 6.62247 5.70726 7.48484 6.47107 7.98441H9.52919C10.293 7.48484 10.7981 6.62247 10.7981 5.64169C10.7983 5.34757 10.7521 5.05525 10.6612 4.77553" stroke="#5A5A5A" stroke-width="0.75" stroke-miterlimit="10" stroke-linecap="round" stroke-linejoin="round"/>
<path d="M8.83389 5.00431C8.83389 4.7315 8.61273 4.51034 8.33992 4.51034H7.6607C7.38789 4.51034 7.16673 4.7315 7.16673 5.00431V5.14838C7.16673 5.42119 7.38789 5.64234 7.6607 5.64234H8.33992C8.61273 5.64234 8.83389 5.8635 8.83389 6.13631V6.28038C8.83389 6.55319 8.61273 6.77434 8.33992 6.77434H7.6607C7.38789 6.77434 7.16673 6.58387 7.16673 6.31106M8.0003 4.05753V4.51034M8.0003 6.77437V7.22719M3.6582 7.98506H12.3424M12.0692 3.36834L10.392 5.04559C10.2482 5.18937 10.0151 5.18937 9.87133 5.04559C9.46048 4.63475 9.46048 3.96859 9.87133 3.55775L10.7455 2.68359C10.8001 2.62896 10.8435 2.5641 10.873 2.49272C10.9026 2.42133 10.9178 2.34483 10.9178 2.26756V1.90525M15.411 4.70156H13.5756C13.3844 4.70156 13.2293 4.54653 13.2293 4.35528V0.580656C13.2293 0.389406 13.3844 0.234375 13.5756 0.234375H15.411C15.6022 0.234375 15.7572 0.389406 15.7572 0.580656V4.35525C15.7573 4.54653 15.6022 4.70156 15.411 4.70156Z" stroke="#5A5A5A" stroke-width="0.75" stroke-miterlimit="10" stroke-linecap="round" stroke-linejoin="round"/>
<path d="M10.9089 4.5277H11.8093C12.3971 4.5277 12.9161 4.23439 13.2291 3.78648V0.701172H10.4744C9.8546 0.701172 9.26022 0.947372 8.82198 1.38561L7.26652 2.94108M9.24023 13.8186L10.1049 11.5484C10.1225 11.5052 10.1837 11.5051 10.2014 11.5483L11.0582 13.8186M9.50989 13.2532H10.7929M14.3614 11.5265H13.4V13.808H14.3614M14.2905 12.6673H13.4M6.92648 13.8186V11.5203L8.48036 13.7704C8.50917 13.812 8.54002 13.7916 8.54002 13.741L8.51852 11.516M1.6387 11.5523V13.7482M11.3884 11.516H12.66M12.0216 11.5895V13.8186M3.17389 12.6673C3.17389 13.283 2.83217 13.7701 2.29005 13.7796C2.10958 13.7828 1.6432 13.7845 1.6432 13.7845C1.6432 13.7845 1.6403 12.9751 1.6403 12.6648C1.6403 12.4099 1.63867 11.55 1.63867 11.55H2.27152C2.86617 11.55 3.17389 12.0516 3.17389 12.6673Z" stroke="#5A5A5A" stroke-width="0.75" stroke-miterlimit="10" stroke-linecap="round" stroke-linejoin="round"/>
<path d="M5.05903 13.8202C5.69488 13.8202 6.21034 13.3047 6.21034 12.6689C6.21034 12.033 5.69488 11.5176 5.05903 11.5176C4.42318 11.5176 3.90771 12.033 3.90771 12.6689C3.90771 13.3047 4.42318 13.8202 5.05903 13.8202Z" stroke="#5A5A5A" stroke-width="0.75" stroke-miterlimit="10" stroke-linecap="round" stroke-linejoin="round"/>
</g>
<defs>
<clipPath id="clip0_0_91">
<rect width="16" height="16" fill="white"/>
</clipPath>
</defs>
</svg>
