<svg width="16" height="16" viewBox="0 0 16 16" fill="none" xmlns="http://www.w3.org/2000/svg">
<g clip-path="url(#clip0_0_131)">
<path d="M14.2813 10.6345V12.892C14.2813 13.4462 13.8321 13.8954 13.278 13.8954H1.23772C0.683594 13.8954 0.234375 13.4462 0.234375 12.892V5.86858C0.234375 5.31445 0.683594 4.86523 1.23772 4.86523H13.278C13.8321 4.86523 14.2813 5.31445 14.2813 5.86858V9.63114" stroke="#5A5A5A" stroke-width="0.5" stroke-miterlimit="10" stroke-linecap="round" stroke-linejoin="round"/>
<path d="M1.21777 3.8613C1.38234 3.66221 1.61757 3.53454 1.87418 3.50502L13.8336 2.1123C14.384 2.0482 14.8822 2.44242 14.9463 2.99286L15.7587 9.96917C15.8228 10.5196 15.4286 11.0178 14.8781 11.0819L14.2812 11.1514M1.7393 10.8848H3.74602M1.7393 12.139H6.75605M4.74937 10.8848H6.75605M7.75943 10.8848H9.76612M10.7695 10.8848H12.7762M2.74265 8.62724H3.24434M3.74602 9.63058H2.24099C1.96393 9.63058 1.7393 9.40599 1.7393 9.12889V8.12555C1.7393 7.84849 1.9639 7.62386 2.24099 7.62386H3.74602C4.02309 7.62386 4.24771 7.84845 4.24771 8.12555V9.12889C4.24768 9.40599 4.02309 9.63058 3.74602 9.63058Z" stroke="#5A5A5A" stroke-width="0.5" stroke-miterlimit="10" stroke-linecap="round" stroke-linejoin="round"/>
<path d="M12.008 8.87866C12.1772 8.53859 12.2747 8.15613 12.2747 7.74988C12.2747 7.34363 12.1772 6.96112 12.008 6.62109M11.1084 8.42569C11.2102 8.22178 11.2713 7.99372 11.2713 7.74988C11.2713 7.50603 11.2102 7.27797 11.1084 7.07406M10.2124 7.9745C10.2469 7.90684 10.268 7.83125 10.268 7.74988C10.268 7.66847 10.2469 7.59291 10.2124 7.52525" stroke="#5A5A5A" stroke-width="0.5" stroke-miterlimit="10" stroke-linecap="round" stroke-linejoin="round"/>
</g>
<defs>
<clipPath id="clip0_0_131">
<rect width="16" height="16" fill="white"/>
</clipPath>
</defs>
</svg>
