<svg width="24" height="24" viewBox="0 0 24 24" fill="none" xmlns="http://www.w3.org/2000/svg">
<path d="M11.8882 5.09961C10.6152 5.09961 9.39429 5.60532 8.49412 6.5055L8.30589 6.69372C7.40572 7.5939 6.9 8.8148 6.9 10.0878V10.9693C6.9 12.5895 6.25635 14.1434 5.11064 15.2891C4.91174 15.488 4.8 15.7578 4.8 16.0391C4.8 16.6248 5.27483 17.0996 5.86056 17.0996H18.1394C18.7252 17.0996 19.2 16.6248 19.2 16.0391C19.2 15.7578 19.0883 15.488 18.8894 15.2891C17.7437 14.1434 17.1 12.5895 17.1 10.9693V10.0878C17.1 8.81479 16.5943 7.5939 15.6941 6.69372L15.5059 6.5055C14.6057 5.60532 13.3848 5.09961 12.1118 5.09961M11.8882 5.09961H12.1118M11.8882 5.09961C11.7244 5.09961 11.5615 5.10798 11.4 5.12449V4.19961C11.4 3.86824 11.6686 3.59961 12 3.59961C12.3314 3.59961 12.6 3.86824 12.6 4.19961V5.12449C12.4385 5.10798 12.2756 5.09961 12.1118 5.09961M9.92154 17.9996C9.92154 17.6826 9.99373 17.3759 10.1265 17.0996H13.8735C14.0063 17.3759 14.0785 17.6826 14.0785 17.9996C14.0785 18.7422 13.6823 19.4283 13.0392 19.7996C12.3962 20.1709 11.6039 20.1709 10.9608 19.7996C10.3177 19.4283 9.92154 18.7422 9.92154 17.9996Z" stroke="white" stroke-linecap="round" stroke-linejoin="round"/>
<path d="M11.8882 5.09961C10.6152 5.09961 9.39429 5.60532 8.49412 6.5055L8.30589 6.69372C7.40572 7.5939 6.9 8.8148 6.9 10.0878V10.9693C6.9 12.5895 6.25635 14.1434 5.11064 15.2891C4.91174 15.488 4.8 15.7578 4.8 16.0391C4.8 16.6248 5.27483 17.0996 5.86056 17.0996H18.1394C18.7252 17.0996 19.2 16.6248 19.2 16.0391C19.2 15.7578 19.0883 15.488 18.8894 15.2891C17.7437 14.1434 17.1 12.5895 17.1 10.9693V10.0878C17.1 8.81479 16.5943 7.5939 15.6941 6.69372L15.5059 6.5055C14.6057 5.60532 13.3848 5.09961 12.1118 5.09961M11.8882 5.09961H12.1118M11.8882 5.09961C11.7244 5.09961 11.5615 5.10798 11.4 5.12449V4.19961C11.4 3.86824 11.6686 3.59961 12 3.59961C12.3314 3.59961 12.6 3.86824 12.6 4.19961V5.12449C12.4385 5.10798 12.2756 5.09961 12.1118 5.09961M9.92154 17.9996C9.92154 17.6826 9.99373 17.3759 10.1265 17.0996H13.8735C14.0063 17.3759 14.0785 17.6826 14.0785 17.9996C14.0785 18.7422 13.6823 19.4283 13.0392 19.7996C12.3962 20.1709 11.6039 20.1709 10.9608 19.7996C10.3177 19.4283 9.92154 18.7422 9.92154 17.9996Z" stroke="black" stroke-opacity="0.2" stroke-linecap="round" stroke-linejoin="round"/>
</svg>
