<svg width="40" height="40" viewBox="0 0 40 40" fill="none" xmlns="http://www.w3.org/2000/svg">
<g clip-path="url(#clip0_616_1594)">
<path d="M25 12.8419V11.625C25 10.2462 23.8787 9.125 22.5 9.125H11.875C10.4962 9.125 9.375 10.2462 9.375 11.625V12.8419C9.375 14.2206 10.4962 15.3419 11.875 15.3419H22.5C23.8787 15.3419 25 14.2206 25 12.8419ZM10.625 12.8419V11.625C10.625 10.9356 11.1856 10.375 11.875 10.375H22.5C23.1894 10.375 23.75 10.9356 23.75 11.625V12.8419C23.75 13.5312 23.1894 14.0919 22.5 14.0919H11.875C11.1856 14.0919 10.625 13.5312 10.625 12.8419ZM24.6925 25.6825C24.5753 25.5653 24.4164 25.4995 24.2506 25.4995C24.0849 25.4995 23.926 25.5653 23.8088 25.6825L19.0575 30.4338C18.9978 30.4914 18.9502 30.5604 18.9174 30.6366C18.8847 30.7129 18.8674 30.7949 18.8667 30.8779C18.866 30.9609 18.8818 31.0432 18.9132 31.12C18.9447 31.1968 18.9911 31.2666 19.0498 31.3252C19.1084 31.3839 19.1782 31.4303 19.255 31.4618C19.3318 31.4932 19.4141 31.509 19.4971 31.5083C19.5801 31.5076 19.6621 31.4903 19.7384 31.4576C19.8146 31.4248 19.8836 31.3772 19.9412 31.3175L24.6925 26.5662C24.8097 26.449 24.8755 26.2901 24.8755 26.1244C24.8755 25.9586 24.8097 25.7997 24.6925 25.6825Z" fill="#003057"/>
<path d="M21.875 26.625C21.81 24.1525 18.1894 24.1532 18.125 26.625C18.19 29.0975 21.8106 29.0969 21.875 26.625ZM19.375 26.625C19.3894 25.8038 20.6106 25.8038 20.625 26.625C20.6106 27.4463 19.3894 27.4463 19.375 26.625ZM23.75 28.5C21.2775 28.565 21.2781 32.1856 23.75 32.25C26.2225 32.185 26.2219 28.5644 23.75 28.5ZM23.75 31C22.9288 30.9856 22.9288 29.7644 23.75 29.75C24.5712 29.7644 24.5712 30.9856 23.75 31ZM24.6925 16.1806C24.5484 16.2623 24.4425 16.3978 24.3982 16.5574C24.3539 16.717 24.3748 16.8877 24.4563 17.0319L25.3794 18.6644C25.4617 18.8074 25.5973 18.912 25.7565 18.9554C25.9156 18.9988 26.0855 18.9775 26.2291 18.8962C26.3726 18.8148 26.4782 18.68 26.5227 18.5212C26.5673 18.3623 26.5472 18.1923 26.4669 18.0482L25.5437 16.4163C25.5034 16.3448 25.4494 16.282 25.3847 16.2315C25.3201 16.181 25.2461 16.1437 25.167 16.1218C25.0879 16.1 25.0053 16.0939 24.9239 16.104C24.8425 16.1141 24.7638 16.1401 24.6925 16.1806ZM30.0312 17.875C30.38 17.875 30.6594 17.5988 30.6625 17.2557L30.6787 15.3807C30.6795 15.2986 30.6641 15.2172 30.6333 15.141C30.6026 15.0649 30.5572 14.9956 30.4997 14.9371C30.4422 14.8785 30.3737 14.8318 30.2981 14.7998C30.2226 14.7677 30.1415 14.7508 30.0594 14.75C29.9773 14.7493 29.8959 14.7647 29.8198 14.7954C29.7437 14.8262 29.6743 14.8716 29.6158 14.9291C29.5572 14.9866 29.5106 15.0551 29.4785 15.1307C29.4464 15.2062 29.4295 15.2873 29.4287 15.3694L29.4125 17.2444C29.411 17.4101 29.4753 17.5695 29.5914 17.6878C29.7074 17.806 29.8656 17.8734 30.0312 17.875ZM33.8356 18.8863C33.9784 18.9704 34.1488 18.9943 34.3093 18.9528C34.4697 18.9113 34.6071 18.8078 34.6912 18.665L35.6425 17.0494C35.6875 16.9786 35.7177 16.8996 35.7315 16.8169C35.7453 16.7342 35.7423 16.6495 35.7227 16.568C35.7031 16.4865 35.6673 16.4098 35.6174 16.3424C35.5675 16.275 35.5046 16.2183 35.4324 16.1757C35.3601 16.1332 35.2801 16.1056 35.197 16.0946C35.1139 16.0836 35.0294 16.0894 34.9486 16.1117C34.8678 16.1341 34.7923 16.1724 34.7266 16.2245C34.6609 16.2766 34.6064 16.3414 34.5662 16.415L33.6144 18.0307C33.5726 18.1014 33.5452 18.1797 33.5338 18.261C33.5223 18.3423 33.527 18.4251 33.5475 18.5046C33.5681 18.5842 33.6041 18.6588 33.6535 18.7244C33.703 18.79 33.7648 18.8446 33.8356 18.8863Z" fill="#003057"/>
<path d="M35 20.375H29.8825C29.7167 20.375 29.5578 20.4408 29.4406 20.5581C29.3233 20.6753 29.2575 20.8342 29.2575 21C29.2561 21.1436 29.2047 21.2823 29.1121 21.392C29.0194 21.5018 28.8914 21.5758 28.75 21.6012V8.5C28.75 7.12125 27.6287 6 26.25 6H3.75C2.37125 6 1.25 7.12125 1.25 8.5V37.875C1.25 39.2537 2.37125 40.375 3.75 40.375H26.25C27.6287 40.375 28.75 39.2537 28.75 37.875V35.375C28.9158 35.375 29.0747 35.4408 29.1919 35.5581C29.3092 35.6753 29.375 35.8342 29.375 36C29.375 36.1658 29.4408 36.3247 29.5581 36.4419C29.6753 36.5592 29.8342 36.625 30 36.625H35C37.0681 36.625 38.75 34.9431 38.75 32.875V24.125C38.75 22.0569 37.0681 20.375 35 20.375ZM27.5 37.875C27.5 38.5644 26.9394 39.125 26.25 39.125H3.75C3.06062 39.125 2.5 38.5644 2.5 37.875V8.5C2.5 7.81062 3.06062 7.25 3.75 7.25H5.625V34.52C5.625 34.6858 5.69085 34.8447 5.80806 34.9619C5.92527 35.0792 6.08424 35.145 6.25 35.145C6.41576 35.145 6.57473 35.0792 6.69194 34.9619C6.80915 34.8447 6.875 34.6858 6.875 34.52V7.25H26.25C26.9394 7.25 27.5 7.81062 27.5 8.5V20.3988C27.4606 20.3906 27.4244 20.375 27.3825 20.375H17.5C15.4319 20.375 13.75 22.0569 13.75 24.125V32.875C13.75 34.9431 15.4319 36.625 17.5 36.625H27.5V37.875ZM37.5 32.875C37.5 34.2537 36.3787 35.375 35 35.375H30.5188C29.9669 33.7294 27.5325 33.7306 26.9812 35.375H17.5C16.1213 35.375 15 34.2537 15 32.875V24.125C15 22.7463 16.1213 21.625 17.5 21.625H26.8644C27.4331 23.2763 29.8519 23.2625 30.4012 21.625H35C36.3787 21.625 37.5 22.7463 37.5 24.125V32.875Z" fill="#003057"/>
<path d="M28.75 23.5C28.5842 23.5 28.4253 23.5658 28.3081 23.6831C28.1908 23.8003 28.125 23.9592 28.125 24.125V32.875C28.125 33.0408 28.1908 33.1997 28.3081 33.3169C28.4253 33.4342 28.5842 33.5 28.75 33.5C28.9158 33.5 29.0747 33.4342 29.1919 33.3169C29.3092 33.1997 29.375 33.0408 29.375 32.875V24.125C29.375 23.9592 29.3092 23.8003 29.1919 23.6831C29.0747 23.5658 28.9158 23.5 28.75 23.5ZM33.125 23.5C32.9592 23.5 32.8003 23.5658 32.6831 23.6831C32.5658 23.8003 32.5 23.9592 32.5 24.125V32.875C32.5 33.0408 32.5658 33.1997 32.6831 33.3169C32.8003 33.4342 32.9592 33.5 33.125 33.5C33.2908 33.5 33.4497 33.4342 33.5669 33.3169C33.6842 33.1997 33.75 33.0408 33.75 32.875V24.125C33.75 23.9592 33.6842 23.8003 33.5669 23.6831C33.4497 23.5658 33.2908 23.5 33.125 23.5ZM35.625 24.75C35.4592 24.75 35.3003 24.8158 35.1831 24.9331C35.0658 25.0503 35 25.2092 35 25.375V31.625C35 31.7908 35.0658 31.9497 35.1831 32.0669C35.3003 32.1842 35.4592 32.25 35.625 32.25C35.7908 32.25 35.9497 32.1842 36.0669 32.0669C36.1842 31.9497 36.25 31.7908 36.25 31.625V25.375C36.25 25.2092 36.1842 25.0503 36.0669 24.9331C35.9497 24.8158 35.7908 24.75 35.625 24.75Z" fill="#003057"/>
</g>
<defs>
<clipPath id="clip0_616_1594">
<rect width="40" height="40" fill="white"/>
</clipPath>
</defs>
</svg>
