<svg width="16" height="16" viewBox="0 0 16 16" fill="none" xmlns="http://www.w3.org/2000/svg">
<path d="M10 3.86175V3.375C10 2.8235 9.5515 2.375 9 2.375H4.75C4.1985 2.375 3.75 2.8235 3.75 3.375V3.86175C3.75 4.41325 4.1985 4.86175 4.75 4.86175H9C9.5515 4.86175 10 4.41325 10 3.86175ZM4.25 3.86175V3.375C4.25 3.09925 4.47425 2.875 4.75 2.875H9C9.27575 2.875 9.5 3.09925 9.5 3.375V3.86175C9.5 4.1375 9.27575 4.36175 9 4.36175H4.75C4.47425 4.36175 4.25 4.1375 4.25 3.86175ZM9.877 8.998C9.83012 8.95113 9.76654 8.9248 9.70025 8.9248C9.63396 8.9248 9.57038 8.95113 9.5235 8.998L7.623 10.8985C7.59912 10.9216 7.58008 10.9491 7.56697 10.9796C7.55387 11.0101 7.54698 11.043 7.54669 11.0761C7.5464 11.1093 7.55272 11.1423 7.56529 11.173C7.57786 11.2037 7.59643 11.2316 7.6199 11.2551C7.64337 11.2786 7.67129 11.2971 7.70201 11.3097C7.73274 11.3223 7.76566 11.3286 7.79885 11.3283C7.83205 11.328 7.86485 11.3211 7.89535 11.308C7.92585 11.2949 7.95344 11.2759 7.9765 11.252L9.877 9.3515C9.92387 9.30462 9.9502 9.24104 9.9502 9.17475C9.9502 9.10846 9.92387 9.04488 9.877 8.998Z" fill="#5A5A5A"/>
<path d="M8.75 9.37501C8.724 8.38601 7.27575 8.38626 7.25 9.37501C7.276 10.364 8.72425 10.3638 8.75 9.37501ZM7.75 9.37501C7.75575 9.04651 8.24425 9.04651 8.25 9.37501C8.24425 9.70351 7.75575 9.70351 7.75 9.37501ZM9.5 10.125C8.511 10.151 8.51125 11.5993 9.5 11.625C10.489 11.599 10.4887 10.1508 9.5 10.125ZM9.5 11.125C9.1715 11.1193 9.1715 10.6308 9.5 10.625C9.8285 10.6308 9.8285 11.1193 9.5 11.125ZM9.877 5.19726C9.81934 5.22991 9.777 5.28411 9.75928 5.34795C9.74156 5.4118 9.74991 5.48007 9.7825 5.53776L10.1517 6.19076C10.1847 6.24794 10.2389 6.28978 10.3026 6.30715C10.3663 6.32451 10.4342 6.316 10.4916 6.28346C10.549 6.25093 10.5913 6.19701 10.6091 6.13346C10.6269 6.06992 10.6189 6.00191 10.5868 5.94426L10.2175 5.29151C10.2014 5.26293 10.1797 5.23782 10.1539 5.21761C10.128 5.1974 10.0984 5.18249 10.0668 5.17374C10.0352 5.16498 10.0021 5.16255 9.96956 5.16659C9.93699 5.17063 9.90554 5.18105 9.877 5.19726ZM12.0125 5.87501C12.152 5.87501 12.2638 5.76451 12.265 5.62726L12.2715 4.87726C12.2718 4.84443 12.2656 4.81186 12.2533 4.78142C12.241 4.75097 12.2229 4.72325 12.1999 4.69982C12.1769 4.6764 12.1495 4.65774 12.1192 4.6449C12.089 4.63206 12.0566 4.62531 12.0238 4.62501C11.9909 4.62471 11.9584 4.63089 11.9279 4.64318C11.8975 4.65547 11.8697 4.67364 11.8463 4.69664C11.8229 4.71965 11.8042 4.74704 11.7914 4.77726C11.7786 4.80748 11.7718 4.83993 11.7715 4.87276L11.765 5.62276C11.7644 5.68902 11.7901 5.75281 11.8365 5.80011C11.8829 5.84741 11.9462 5.87435 12.0125 5.87501ZM13.5343 6.27951C13.5914 6.31315 13.6595 6.32273 13.7237 6.30613C13.7879 6.28953 13.8428 6.24812 13.8765 6.19101L14.257 5.54476C14.275 5.51646 14.2871 5.48482 14.2926 5.45174C14.2981 5.41866 14.2969 5.38481 14.2891 5.35221C14.2812 5.3196 14.2669 5.28891 14.247 5.26195C14.227 5.23499 14.2018 5.21233 14.1729 5.1953C14.1441 5.17827 14.112 5.16723 14.0788 5.16283C14.0455 5.15843 14.0118 5.16077 13.9794 5.1697C13.9471 5.17863 13.9169 5.19397 13.8906 5.21481C13.8644 5.23565 13.8426 5.26157 13.8265 5.29101L13.4458 5.93726C13.4291 5.96556 13.4181 5.99686 13.4135 6.0294C13.4089 6.06193 13.4108 6.09504 13.419 6.12685C13.4272 6.15866 13.4416 6.18854 13.4614 6.21478C13.4812 6.24101 13.5059 6.26285 13.5343 6.27951Z" fill="#5A5A5A"/>
<path d="M14 6.875H11.953C11.8867 6.875 11.8231 6.90134 11.7762 6.94822C11.7293 6.99511 11.703 7.0587 11.703 7.125C11.7025 7.18245 11.6819 7.23791 11.6448 7.28182C11.6078 7.32572 11.5565 7.35532 11.5 7.3655V2.125C11.5 1.5735 11.0515 1.125 10.5 1.125H1.5C0.9485 1.125 0.5 1.5735 0.5 2.125V13.875C0.5 14.4265 0.9485 14.875 1.5 14.875H10.5C11.0515 14.875 11.5 14.4265 11.5 13.875V12.875C11.5663 12.875 11.6299 12.9013 11.6768 12.9482C11.7237 12.9951 11.75 13.0587 11.75 13.125C11.75 13.1913 11.7763 13.2549 11.8232 13.3018C11.8701 13.3487 11.9337 13.375 12 13.375H14C14.8272 13.375 15.5 12.7022 15.5 11.875V8.375C15.5 7.54775 14.8272 6.875 14 6.875ZM11 13.875C11 14.1508 10.7758 14.375 10.5 14.375H1.5C1.22425 14.375 1 14.1508 1 13.875V2.125C1 1.84925 1.22425 1.625 1.5 1.625H2.25V12.533C2.25 12.5993 2.27634 12.6629 2.32322 12.7098C2.37011 12.7567 2.4337 12.783 2.5 12.783C2.5663 12.783 2.62989 12.7567 2.67678 12.7098C2.72366 12.6629 2.75 12.5993 2.75 12.533V1.625H10.5C10.7758 1.625 11 1.84925 11 2.125V6.8845C10.9843 6.88125 10.9698 6.875 10.953 6.875H7C6.17275 6.875 5.5 7.54775 5.5 8.375V11.875C5.5 12.7022 6.17275 13.375 7 13.375H11V13.875ZM15 11.875C15 12.4265 14.5515 12.875 14 12.875H12.2075C11.9868 12.2168 11.013 12.2172 10.7925 12.875H7C6.4485 12.875 6 12.4265 6 11.875V8.375C6 7.8235 6.4485 7.375 7 7.375H10.7458C10.9733 8.0355 11.9407 8.03 12.1605 7.375H14C14.5515 7.375 15 7.8235 15 8.375V11.875Z" fill="#5A5A5A"/>
<path d="M11.5 8.125C11.4337 8.125 11.3701 8.15134 11.3232 8.19822C11.2763 8.24511 11.25 8.3087 11.25 8.375V11.875C11.25 11.9413 11.2763 12.0049 11.3232 12.0518C11.3701 12.0987 11.4337 12.125 11.5 12.125C11.5663 12.125 11.6299 12.0987 11.6768 12.0518C11.7237 12.0049 11.75 11.9413 11.75 11.875V8.375C11.75 8.3087 11.7237 8.24511 11.6768 8.19822C11.6299 8.15134 11.5663 8.125 11.5 8.125ZM13.25 8.125C13.1837 8.125 13.1201 8.15134 13.0732 8.19822C13.0263 8.24511 13 8.3087 13 8.375V11.875C13 11.9413 13.0263 12.0049 13.0732 12.0518C13.1201 12.0987 13.1837 12.125 13.25 12.125C13.3163 12.125 13.3799 12.0987 13.4268 12.0518C13.4737 12.0049 13.5 11.9413 13.5 11.875V8.375C13.5 8.3087 13.4737 8.24511 13.4268 8.19822C13.3799 8.15134 13.3163 8.125 13.25 8.125ZM14.25 8.625C14.1837 8.625 14.1201 8.65134 14.0732 8.69822C14.0263 8.74511 14 8.8087 14 8.875V11.375C14 11.4413 14.0263 11.5049 14.0732 11.5518C14.1201 11.5987 14.1837 11.625 14.25 11.625C14.3163 11.625 14.3799 11.5987 14.4268 11.5518C14.4737 11.5049 14.5 11.4413 14.5 11.375V8.875C14.5 8.8087 14.4737 8.74511 14.4268 8.69822C14.3799 8.65134 14.3163 8.625 14.25 8.625Z" fill="#5A5A5A"/>
</svg>
