<svg width="16" height="16" viewBox="0 0 16 16" fill="none" xmlns="http://www.w3.org/2000/svg">
<g clip-path="url(#clip0_0_97)">
<path d="M8 0.566406C6.99957 0.566406 6.18575 1.38037 6.18575 2.38066V3.57456H1.30336C0.584724 3.57456 0 4.15918 0 4.87792V14.1318C0 14.8505 0.584724 15.4351 1.30336 15.4351H14.6966C15.4153 15.4351 16 14.8505 16 14.1318V4.87792C16 4.15918 15.4153 3.57456 14.6966 3.57456H9.81428V2.38066C9.81428 1.38037 9.00043 0.566406 8 0.566406ZM6.70707 2.38066C6.70707 1.66775 7.28709 1.08773 8 1.08773C8.71291 1.08773 9.29293 1.66775 9.29293 2.38066V5.26115H6.70707V2.38066ZM15.4787 14.1318C15.4787 14.563 15.1279 14.9138 14.6967 14.9138H1.30336C0.872129 14.9138 0.521355 14.563 0.521355 14.1318V7.12749H15.4787V14.1318ZM14.6966 4.09592C15.1279 4.09592 15.4786 4.44669 15.4786 4.87792V6.60613H0.521355V4.87792C0.521355 4.44669 0.872129 4.09592 1.30336 4.09592H6.18575V5.26118H5.61526C5.58103 5.26117 5.54712 5.2679 5.51549 5.281C5.48386 5.29409 5.45512 5.31329 5.43091 5.3375C5.4067 5.36171 5.3875 5.39045 5.3744 5.42208C5.36131 5.45372 5.35457 5.48762 5.35458 5.52185C5.35458 5.66568 5.4713 5.78253 5.61526 5.78253H10.3847C10.5287 5.78253 10.6454 5.66568 10.6454 5.52185C10.6454 5.48762 10.6387 5.45372 10.6256 5.42209C10.6125 5.39046 10.5933 5.36172 10.5691 5.33751C10.5449 5.3133 10.5161 5.2941 10.4845 5.281C10.4529 5.26791 10.419 5.26117 10.3847 5.26118H9.81425V4.09592H14.6966Z" fill="#5A5A5A"/>
<path d="M8.1445 2.30467C8.29717 2.18311 8.28874 2.00781 8.18358 1.90323C8.1207 1.82505 7.93607 1.78329 7.81613 1.90323C7.71795 1.99136 7.71245 2.17273 7.81613 2.27082C7.88848 2.34731 8.01741 2.38192 8.1445 2.30467ZM2.71316 13.8708H6.76567C7.1969 13.8708 7.54767 13.52 7.54767 13.0888V8.95193C7.54767 8.5207 7.1969 8.16993 6.76567 8.16993H2.71316C2.28193 8.16993 1.93115 8.5207 1.93115 8.95193V13.0888C1.93115 13.52 2.28193 13.8708 2.71316 13.8708ZM3.3035 13.3495V13.2231C3.3035 12.4314 3.94767 11.7871 4.73948 11.7871H4.74241C5.12566 11.7871 5.4846 11.9366 5.75494 12.2093C6.02605 12.4779 6.17536 12.838 6.17536 13.2231V13.3495H3.3035ZM4.10385 10.6302C4.10385 10.2798 4.39035 9.99462 4.74241 9.99462C5.09283 9.99462 5.37793 10.2799 5.37793 10.6302C5.37793 10.9806 5.09283 11.2658 4.74241 11.2658H4.74088C4.38958 11.2637 4.10385 10.9786 4.10385 10.6302ZM2.45248 8.95193C2.45248 8.80824 2.56944 8.69125 2.71316 8.69125H6.76567C6.90936 8.69125 7.02635 8.80822 7.02635 8.95193V13.0888C7.02635 13.2325 6.90938 13.3495 6.76567 13.3495H6.69669V13.2231C6.69669 12.6977 6.49253 12.2061 6.12355 11.8407C5.95872 11.6742 5.76894 11.5413 5.56248 11.4455C5.77058 11.2362 5.89926 10.948 5.89926 10.6303C5.89926 9.99221 5.38034 9.47329 4.74241 9.47329C4.10284 9.47329 3.58249 9.99221 3.58249 10.6303C3.58249 10.9473 3.71208 11.2358 3.92133 11.4451C3.24941 11.7556 2.78217 12.4358 2.78217 13.2231V13.3495H2.71319C2.5695 13.3495 2.45251 13.2326 2.45251 13.0888L2.45248 8.95193ZM11.442 13.6472C12.8903 13.6472 14.0687 12.4688 14.0687 11.0204C14.0687 9.57193 12.8903 8.39366 11.442 8.39366C9.99351 8.39366 8.81516 9.5719 8.81516 11.0204C8.81516 12.4688 9.99351 13.6472 11.442 13.6472ZM11.442 8.91502C12.6029 8.91502 13.5473 9.85958 13.5473 11.0204C13.5473 12.1813 12.6029 13.1259 11.442 13.1259C10.281 13.1259 9.33649 12.1813 9.33649 11.0204C9.33649 9.85958 10.281 8.91502 11.442 8.91502Z" fill="#5A5A5A"/>
<path d="M10.1872 11.7199C10.2209 11.7802 10.2771 11.8248 10.3436 11.8437C10.4101 11.8627 10.4814 11.8544 10.5418 11.8208L11.1812 11.4649V12.1419C11.1812 12.286 11.2979 12.4026 11.4418 12.4026C11.5858 12.4026 11.7025 12.286 11.7025 12.1419V11.4651L12.3417 11.8208C12.4021 11.8544 12.4734 11.8627 12.5399 11.8438C12.6064 11.8248 12.6627 11.7803 12.6963 11.7199C12.7663 11.594 12.721 11.4353 12.5953 11.3653L11.9778 11.0216L12.5953 10.678C12.6557 10.6443 12.7003 10.5881 12.7192 10.5216C12.7382 10.4551 12.7299 10.3838 12.6963 10.3234C12.6262 10.1976 12.4675 10.1526 12.3417 10.2224L11.7025 10.5782V9.9013C11.7025 9.75723 11.5858 9.64062 11.4418 9.64062C11.2979 9.64062 11.1812 9.7572 11.1812 9.9013V10.5783L10.5418 10.2224C10.4162 10.1526 10.2574 10.1976 10.1872 10.3234C10.1172 10.4493 10.1625 10.608 10.2883 10.678L10.9057 11.0216L10.2883 11.3653C10.1625 11.4352 10.1172 11.594 10.1872 11.7199Z" fill="#5A5A5A"/>
</g>
<defs>
<clipPath id="clip0_0_97">
<rect width="16" height="16" fill="white"/>
</clipPath>
</defs>
</svg>
