<svg width="16" height="16" viewBox="0 0 16 16" fill="none" xmlns="http://www.w3.org/2000/svg">
<g clip-path="url(#clip0_0_104)">
<path d="M10.94 2.01552H10.5356C10.5179 1.66791 10.2295 1.39055 9.87756 1.39055H9.70832C9.69865 1.39054 9.68938 1.3867 9.68254 1.37986C9.67571 1.37302 9.67186 1.36375 9.67185 1.35408V0.882766C9.67185 0.39601 9.27584 0 8.78909 0H5.45014C5.32068 0 5.21578 0.104901 5.21578 0.234363C5.21578 0.363825 5.32068 0.468725 5.45014 0.468725H8.78909C9.01739 0.468725 9.20313 0.654465 9.20313 0.882766V1.35408C9.20313 1.63263 9.42977 1.85928 9.70832 1.85928H9.87756C9.92796 1.85933 9.97628 1.87938 10.0119 1.91501C10.0476 1.95065 10.0676 1.99896 10.0677 2.04936V3.46597C10.0677 3.70865 9.87025 3.90604 9.62757 3.90604H2.81025C2.56757 3.90604 2.37014 3.70865 2.37014 3.46597V2.04936C2.3702 1.99896 2.39025 1.95064 2.42589 1.915C2.46154 1.87937 2.50986 1.85933 2.56026 1.85928H2.7295C3.00805 1.85928 3.23469 1.63263 3.23469 1.35408V0.882766C3.23469 0.654465 3.42043 0.468725 3.64873 0.468725H4.36485C4.49431 0.468725 4.59921 0.363825 4.59921 0.234363C4.59921 0.104901 4.49431 0 4.36485 0H3.64873C3.16198 0 2.76597 0.39601 2.76597 0.882766V1.35408C2.76597 1.37421 2.74962 1.39055 2.7295 1.39055H2.56026C2.20831 1.39055 1.91995 1.66791 1.90226 2.01552H1.49782C0.672172 2.01552 0.000488281 2.6872 0.000488281 3.51285V14.5018C0.000488281 15.3275 0.672172 15.9992 1.49782 15.9992H10.94C11.7656 15.9992 12.4373 15.3275 12.4373 14.5018V3.51285C12.4373 2.6872 11.7656 2.01552 10.94 2.01552ZM11.9686 14.5018C11.9686 15.069 11.5072 15.5304 10.94 15.5304H1.49782C0.930658 15.5304 0.469214 15.069 0.469214 14.5018V3.51285C0.469214 2.94569 0.930658 2.48424 1.49782 2.48424H1.90142V3.10921H1.87867C1.44685 3.10921 1.09552 3.4605 1.09552 3.89236V11.114C1.09552 11.2435 1.20042 11.3484 1.32989 11.3484C1.45935 11.3484 1.56425 11.2435 1.56425 11.114V3.89236C1.56425 3.71899 1.7053 3.57794 1.87867 3.57794H1.90829C1.96363 4.02641 2.34702 4.37477 2.81025 4.37477H9.62757C10.0908 4.37477 10.4742 4.02641 10.5295 3.57794H10.5591C10.7325 3.57794 10.8736 3.71899 10.8736 3.89236V14.1223C10.8736 14.2957 10.7325 14.4368 10.5591 14.4368H1.87867C1.7053 14.4368 1.56425 14.2957 1.56425 14.1223V12.2077C1.56425 12.0783 1.45935 11.9734 1.32989 11.9734C1.20042 11.9734 1.09552 12.0783 1.09552 12.2077V14.1223C1.09556 14.5542 1.44685 14.9055 1.87867 14.9055H10.5591C10.9909 14.9055 11.3423 14.5542 11.3423 14.1223V3.89236C11.3423 3.46054 10.991 3.10921 10.5591 3.10921H10.5364V2.48424H10.94C11.5071 2.48424 11.9686 2.94569 11.9686 3.51285V14.5018H11.9686Z" fill="#5A5A5A"/>
<path d="M3.63193 1.9658C3.63193 2.09526 3.73683 2.20017 3.86629 2.20017C3.99576 2.20017 4.10066 2.09526 4.10066 1.9658C4.10066 1.85787 4.1885 1.77003 4.29643 1.77003C4.40436 1.77003 4.4922 1.85787 4.4922 1.9658C4.4922 2.09526 4.5971 2.20017 4.72656 2.20017C4.85602 2.20017 4.96092 2.09526 4.96092 1.9658C4.96092 1.59938 4.66285 1.30131 4.29643 1.30131C3.93001 1.30131 3.63193 1.59942 3.63193 1.9658ZM7.94558 1.9658C7.94558 1.85787 8.03342 1.77003 8.14135 1.77003C8.24928 1.77003 8.33712 1.85787 8.33712 1.9658C8.33712 2.09526 8.44202 2.20017 8.57148 2.20017C8.70095 2.20017 8.80585 2.09526 8.80585 1.9658C8.80585 1.59938 8.50777 1.30131 8.14135 1.30131C7.77493 1.30131 7.47685 1.59938 7.47685 1.9658C7.47685 2.09526 7.58176 2.20017 7.71122 2.20017C7.84068 2.20017 7.94558 2.09526 7.94558 1.9658ZM6.21889 2.91075C6.33886 2.91073 6.45742 2.88499 6.56661 2.83528C6.67579 2.78556 6.77304 2.71302 6.85182 2.62255C6.89267 2.5757 6.91323 2.51453 6.90898 2.45252C6.90473 2.39051 6.87602 2.33272 6.82917 2.29188C6.78232 2.25103 6.72116 2.23047 6.65914 2.23472C6.59713 2.23897 6.53935 2.26768 6.4985 2.31453C6.42785 2.39556 6.32598 2.44203 6.21889 2.44203C6.1118 2.44203 6.0099 2.39556 5.93928 2.31453C5.89814 2.26875 5.84064 2.24099 5.7792 2.23725C5.71776 2.23351 5.65731 2.25408 5.61092 2.29453C5.56452 2.33497 5.5359 2.39205 5.53122 2.45342C5.52655 2.5148 5.54621 2.57555 5.58595 2.62255C5.66474 2.71302 5.76199 2.78556 5.87117 2.83528C5.98035 2.88499 6.09892 2.91073 6.21889 2.91075ZM3.14615 7.41108H4.28149C4.64044 7.41108 4.93249 7.11903 4.93249 6.76005V5.93719C4.93249 5.57824 4.64044 5.28619 4.28149 5.28619H3.14615C2.78716 5.28619 2.49512 5.57824 2.49512 5.93719V6.76005C2.49512 7.11903 2.78713 7.41108 3.14615 7.41108ZM2.96384 5.93719C2.9639 5.88886 2.98313 5.84253 3.0173 5.80835C3.05148 5.77418 3.09782 5.75496 3.14615 5.75492H4.28149C4.32982 5.75496 4.37615 5.77418 4.41032 5.80836C4.44449 5.84253 4.46371 5.88886 4.46376 5.93719V6.76005C4.46371 6.80838 4.4445 6.85471 4.41032 6.88889C4.37615 6.92307 4.32982 6.9423 4.28149 6.94235H3.14615C3.09781 6.9423 3.05147 6.92308 3.01729 6.8889C2.98311 6.85472 2.96389 6.80838 2.96384 6.76005V5.93719ZM3.14615 10.463H4.28149C4.64044 10.463 4.93249 10.1709 4.93249 9.81198V8.98912C4.93249 8.63014 4.64044 8.33809 4.28149 8.33809H3.14615C2.78716 8.33809 2.49512 8.63014 2.49512 8.98912V9.81198C2.49512 10.1709 2.78713 10.463 3.14615 10.463ZM2.96384 8.98912C2.96389 8.94078 2.98311 8.89444 3.01729 8.86027C3.05147 8.82609 3.09781 8.80687 3.14615 8.80682H4.28149C4.32982 8.80688 4.37615 8.8261 4.41032 8.86028C4.4445 8.89445 4.46371 8.94079 4.46376 8.98912V9.81198C4.46371 9.86031 4.44449 9.90664 4.41032 9.94081C4.37615 9.97499 4.32982 9.9942 4.28149 9.99425H3.14615C3.09782 9.9942 3.05148 9.97499 3.0173 9.94081C2.98313 9.90664 2.9639 9.86031 2.96384 9.81198V8.98912ZM3.14615 13.5253H4.28149C4.64044 13.5253 4.93249 13.2333 4.93249 12.8743V12.0515C4.93249 11.6925 4.64044 11.4004 4.28149 11.4004H3.14615C2.78716 11.4004 2.49512 11.6925 2.49512 12.0515V12.8743C2.49512 13.2333 2.78713 13.5253 3.14615 13.5253ZM2.96384 12.0515C2.96389 12.0031 2.98311 11.9568 3.01729 11.9226C3.05147 11.8884 3.09781 11.8692 3.14615 11.8692H4.28149C4.32982 11.8692 4.37615 11.8884 4.41032 11.9226C4.4445 11.9568 4.46371 12.0031 4.46376 12.0515V12.8743C4.46371 12.9226 4.44449 12.969 4.41032 13.0032C4.37615 13.0373 4.32982 13.0565 4.28149 13.0566H3.14615C3.09782 13.0565 3.05148 13.0373 3.0173 13.0032C2.98313 12.969 2.9639 12.9227 2.96384 12.8743V12.0515ZM5.78141 6.03615H9.06249C9.19195 6.03615 9.29685 5.93125 9.29685 5.80179C9.29685 5.67233 9.19195 5.56743 9.06249 5.56743H5.78141C5.65195 5.56743 5.54705 5.67233 5.54705 5.80179C5.54705 5.93125 5.65195 6.03615 5.78141 6.03615ZM5.78141 7.12984H8.12504C8.2545 7.12984 8.3594 7.02494 8.3594 6.89548C8.3594 6.76602 8.2545 6.66112 8.12504 6.66112H5.78141C5.65195 6.66112 5.54705 6.76602 5.54705 6.89548C5.54705 7.02494 5.65195 7.12984 5.78141 7.12984ZM5.78141 9.08805H9.68746C9.81692 9.08805 9.92182 8.98315 9.92182 8.85369C9.92182 8.72423 9.81692 8.61933 9.68746 8.61933H5.78141C5.65195 8.61933 5.54705 8.72423 5.54705 8.85369C5.54705 8.98315 5.65195 9.08805 5.78141 9.08805ZM5.78141 10.1817H8.75001C8.87947 10.1817 8.98437 10.0768 8.98437 9.94738C8.98437 9.81792 8.87947 9.71302 8.75001 9.71302H5.78141C5.65195 9.71302 5.54705 9.81792 5.54705 9.94738C5.54705 10.0768 5.65195 10.1817 5.78141 10.1817ZM5.78141 12.1504H8.75001C8.87947 12.1504 8.98437 12.0455 8.98437 11.916C8.98437 11.7866 8.87947 11.6817 8.75001 11.6817H5.78141C5.65195 11.6817 5.54705 11.7866 5.54705 11.916C5.54705 12.0455 5.65195 12.1504 5.78141 12.1504ZM5.78141 13.2441H6.8751C7.00457 13.2441 7.10947 13.1392 7.10947 13.0097C7.10947 12.8803 7.00457 12.7754 6.8751 12.7754H5.78141C5.65195 12.7754 5.54705 12.8803 5.54705 13.0097C5.54705 13.1392 5.65195 13.2441 5.78141 13.2441ZM15.1768 0H13.8851C13.4314 0 13.0623 0.369106 13.0623 0.822863V14.3218C13.0624 14.4911 13.0978 14.6585 13.1662 14.8133C13.2346 14.9682 13.3345 15.1071 13.4596 15.2212L14.1528 15.8527C14.2606 15.9509 14.3957 16 14.531 16C14.6662 16 14.8014 15.9509 14.9092 15.8527L15.6024 15.2212C15.7274 15.1071 15.8273 14.9682 15.8957 14.8133C15.9641 14.6585 15.9995 14.4911 15.9997 14.3218V12.4368C15.9997 12.3074 15.8948 12.2025 15.7653 12.2025C15.6359 12.2025 15.531 12.3074 15.531 12.4368V14.0949C15.2926 13.9699 15.0329 13.8906 14.7654 13.8611V2.35969H15.531V11.3536C15.531 11.483 15.6359 11.5879 15.7653 11.5879C15.8948 11.5879 15.9997 11.483 15.9997 11.3536V0.822863C15.9996 0.369106 15.6305 0 15.1768 0ZM15.2867 14.8747L14.5935 15.5062C14.5764 15.5219 14.5541 15.5306 14.5309 15.5306C14.5078 15.5306 14.4854 15.5219 14.4684 15.5062L13.7752 14.8747C13.6935 14.8003 13.6294 14.7086 13.5874 14.6064C13.866 14.418 14.1946 14.3172 14.5309 14.317C14.8673 14.3172 15.1958 14.418 15.4744 14.6064C15.4324 14.7086 15.3683 14.8003 15.2867 14.8747ZM14.2966 13.8611C14.0291 13.8906 13.7694 13.9699 13.531 14.0948V2.35969H14.2966V13.8611ZM13.531 1.89096V0.822863C13.531 0.627592 13.6899 0.468725 13.8851 0.468725H15.1768C15.372 0.468725 15.5309 0.627592 15.5309 0.822863V1.89096H13.531Z" fill="#5A5A5A"/>
</g>
<defs>
<clipPath id="clip0_0_104">
<rect width="16" height="16" fill="white"/>
</clipPath>
</defs>
</svg>
