<svg width="40" height="40" viewBox="0 0 40 40" fill="none" xmlns="http://www.w3.org/2000/svg">
<path d="M24.1667 17.5C24.1667 16.6759 23.9223 15.8703 23.4645 15.1851C23.0066 14.4999 22.3559 13.9659 21.5945 13.6505C20.8332 13.3351 19.9954 13.2526 19.1871 13.4134C18.3789 13.5742 17.6364 13.971 17.0537 14.5537C16.471 15.1364 16.0742 15.8789 15.9134 16.6871C15.7526 17.4954 15.8351 18.3332 16.1505 19.0945C16.4659 19.8559 16.9999 20.5066 17.6851 20.9645C18.3703 21.4223 19.1759 21.6667 20 21.6667C21.1048 21.6658 22.1641 21.2265 22.9453 20.4453C23.7265 19.6641 24.1658 18.6048 24.1667 17.5ZM17.5 17.5C17.5 17.0055 17.6466 16.5222 17.9213 16.1111C18.196 15.7 18.5865 15.3795 19.0433 15.1903C19.5001 15.0011 20.0028 14.9516 20.4877 15.048C20.9727 15.1445 21.4181 15.3826 21.7678 15.7322C22.1174 16.0819 22.3555 16.5273 22.452 17.0123C22.5484 17.4972 22.4989 17.9999 22.3097 18.4567C22.1205 18.9135 21.8 19.304 21.3889 19.5787C20.9778 19.8534 20.4945 20 20 20C19.3372 19.9991 18.7019 19.7354 18.2332 19.2668C17.7646 18.7981 17.5009 18.1628 17.5 17.5ZM28.3333 18.3333C28.1123 18.3333 27.9004 18.2455 27.7441 18.0893C27.5878 17.933 27.5 17.721 27.5 17.5C27.5 17.279 27.5878 17.067 27.7441 16.9107C27.9004 16.7545 28.1123 16.6667 28.3333 16.6667H31.6667C31.8877 16.6667 32.0996 16.7545 32.2559 16.9107C32.4122 17.067 32.5 17.279 32.5 17.5C32.5 17.721 32.4122 17.933 32.2559 18.0893C32.0996 18.2455 31.8877 18.3333 31.6667 18.3333H28.3333ZM11.6667 16.6667C11.8877 16.6667 12.0996 16.7545 12.2559 16.9107C12.4122 17.067 12.5 17.279 12.5 17.5C12.5 17.721 12.4122 17.933 12.2559 18.0893C12.0996 18.2455 11.8877 18.3333 11.6667 18.3333H8.33333C8.11232 18.3333 7.90036 18.2455 7.74408 18.0893C7.5878 17.933 7.5 17.721 7.5 17.5C7.5 17.279 7.5878 17.067 7.74408 16.9107C7.90036 16.7545 8.11232 16.6667 8.33333 16.6667H11.6667ZM27.2567 31.91C27.3363 31.9869 27.3997 32.0788 27.4434 32.1805C27.4871 32.2822 27.5101 32.3915 27.511 32.5022C27.512 32.6128 27.4909 32.7225 27.449 32.825C27.4071 32.9274 27.3452 33.0204 27.267 33.0987C27.1888 33.1769 27.0957 33.2388 26.9933 33.2807C26.8909 33.3226 26.7811 33.3437 26.6705 33.3427C26.5599 33.3417 26.4505 33.3188 26.3488 33.2751C26.2472 33.2314 26.1552 33.1679 26.0783 33.0883L20.8333 27.845V39.1667C20.8333 39.3877 20.7455 39.5996 20.5893 39.7559C20.433 39.9122 20.221 40 20 40C19.779 40 19.567 39.9122 19.4107 39.7559C19.2545 39.5996 19.1667 39.3877 19.1667 39.1667V27.845L13.9233 33.09C13.7662 33.2418 13.5557 33.3258 13.3372 33.3239C13.1187 33.322 12.9097 33.2344 12.7552 33.0798C12.6006 32.9253 12.513 32.7163 12.5111 32.4978C12.5092 32.2793 12.5932 32.0688 12.745 31.9117L19.4117 25.245C19.5679 25.0888 19.7799 25.001 20.0008 25.001C20.2218 25.001 20.4337 25.0888 20.59 25.245L27.2567 31.91ZM37.5 9.16667V25.8333C37.4991 26.9381 37.0598 27.9974 36.2786 28.7786C35.4974 29.5598 34.4381 29.9991 33.3333 30H28.88L27.2133 28.3333H33.3333C33.9961 28.3325 34.6315 28.0688 35.1001 27.6001C35.5688 27.1315 35.8325 26.4961 35.8333 25.8333V9.16667C35.8325 8.5039 35.5688 7.86852 35.1001 7.39987C34.6315 6.93122 33.9961 6.66755 33.3333 6.66667H6.66667C6.0039 6.66755 5.36852 6.93122 4.89987 7.39987C4.43122 7.86852 4.16755 8.5039 4.16667 9.16667V25.8333C4.16755 26.4961 4.43122 27.1315 4.89987 27.6001C5.36852 28.0688 6.0039 28.3325 6.66667 28.3333H12.7867L11.12 30H6.66667C5.56187 29.9991 4.50257 29.5598 3.72136 28.7786C2.94015 27.9974 2.50088 26.9381 2.5 25.8333V9.16667C2.50088 8.06187 2.94015 7.00257 3.72136 6.22136C4.50257 5.44015 5.56187 5.00088 6.66667 5H33.3333C34.4381 5.00088 35.4974 5.44015 36.2786 6.22136C37.0598 7.00257 37.4991 8.06187 37.5 9.16667Z" fill="#003057"/>
</svg>
