<svg width="16" height="16" viewBox="0 0 16 16" fill="none" xmlns="http://www.w3.org/2000/svg">
<path d="M6.57349 7.70727C7.6323 7.70727 8.54905 7.32749 9.29832 6.57821C10.0474 5.82908 10.4272 4.91246 10.4272 3.85352C10.4272 2.7949 10.0475 1.87818 9.2982 1.12878C8.54892 0.379749 7.63217 0 6.57349 0C5.51452 0 4.59787 0.379749 3.84874 1.1289C3.09962 1.87806 2.71971 2.79481 2.71971 3.85352C2.71971 4.91246 3.09959 5.82921 3.84877 6.57836C4.59815 7.32739 5.51489 7.70727 6.57346 7.70727H6.57349ZM4.51183 1.79187C5.08665 1.21703 5.76099 0.937623 6.57349 0.937623C7.38586 0.937623 8.0603 1.21703 8.63523 1.79187C9.21008 2.36681 9.48961 3.04124 9.48961 3.85349C9.48961 4.66599 9.21008 5.34033 8.63523 5.91527C8.0603 6.49024 7.38586 6.76964 6.57349 6.76964C5.76121 6.76964 5.08693 6.49011 4.51183 5.91527C3.93687 5.34046 3.65734 4.66602 3.65734 3.85352C3.65734 3.04124 3.93687 2.36681 4.51183 1.79187ZM13.3165 12.3032C13.2949 11.9914 13.2512 11.6513 13.1868 11.2922C13.1219 10.9304 13.0383 10.5884 12.9382 10.2757C12.8347 9.95261 12.6942 9.63354 12.5202 9.32773C12.3399 9.01036 12.128 8.73398 11.8902 8.50658C11.6416 8.26867 11.3371 8.07739 10.9851 7.93783C10.6343 7.79908 10.2454 7.72877 9.82957 7.72877C9.66623 7.72877 9.50829 7.79577 9.20323 7.99439C8.98639 8.13559 8.76889 8.2758 8.55076 8.41502C8.34117 8.54858 8.05723 8.6737 7.70652 8.78698C7.36436 8.8977 7.01695 8.95386 6.67392 8.95386C6.33117 8.95386 5.98374 8.8977 5.64133 8.78698C5.29102 8.67379 5.00696 8.5487 4.79771 8.41514C4.5549 8.25998 4.33521 8.11839 4.14465 7.99423C3.83984 7.79564 3.68187 7.72861 3.51856 7.72861C3.10252 7.72861 2.71387 7.79905 2.36315 7.93798C2.01134 8.07727 1.70678 8.26855 1.45787 8.5067C1.22009 8.73423 1.00819 9.01045 0.827998 9.32773C0.654311 9.63351 0.513686 9.95248 0.410155 10.2759C0.310156 10.5885 0.226562 10.9304 0.161625 11.2922C0.0971561 11.6509 0.0535936 11.9911 0.0319687 12.3036C0.0107187 12.6091 0 12.9271 0 13.2484C0 14.0836 0.265499 14.7597 0.789061 15.2584C1.30615 15.7505 1.99025 16 2.82237 16H10.5265C11.3584 16 12.0424 15.7505 12.5597 15.2584C13.0833 14.7601 13.3488 14.0837 13.3488 13.2483C13.3487 12.9259 13.3379 12.6079 13.3165 12.3032ZM11.9132 14.5791C11.5715 14.9043 11.1179 15.0623 10.5263 15.0623H2.8224C2.23075 15.0623 1.77712 14.9043 1.43556 14.5792C1.1005 14.2602 0.937654 13.8248 0.937654 13.2484C0.937654 12.9486 0.947529 12.6526 0.967342 12.3684C0.986592 12.0896 1.02603 11.7833 1.08453 11.4579C1.14225 11.1364 1.21572 10.8348 1.30312 10.5618C1.387 10.2999 1.50137 10.0406 1.64322 9.79089C1.77859 9.55282 1.93434 9.34861 2.10621 9.18408C2.267 9.03014 2.46965 8.90417 2.7084 8.8097C2.92921 8.72226 3.1774 8.67442 3.44681 8.6672C3.47962 8.6847 3.53812 8.71801 3.63284 8.77976C3.82559 8.90539 4.04774 9.0487 4.29337 9.20554C4.57024 9.38208 4.9269 9.54148 5.35305 9.67904C5.78871 9.81992 6.23305 9.89145 6.67408 9.89145C7.11514 9.89145 7.55958 9.81992 7.99502 9.67917C8.42151 9.54136 8.77808 9.38208 9.05533 9.20529C9.30667 9.04467 9.52261 8.90551 9.71532 8.77976C9.81007 8.71811 9.86854 8.68467 9.90139 8.66723C10.1709 8.67442 10.4191 8.72226 10.64 8.80967C10.8787 8.90417 11.0813 9.03026 11.2421 9.18404C11.4139 9.34848 11.5697 9.55273 11.7051 9.79101C11.847 10.0406 11.9616 10.3 12.0453 10.5616C12.1328 10.8351 12.2064 11.1366 12.264 11.4577C12.3224 11.7838 12.3619 12.0902 12.3812 12.3685V12.3688C12.4011 12.6518 12.4111 12.9477 12.4113 13.2484C12.4111 13.8249 12.2483 14.2603 11.9132 14.5791H11.9132Z" fill="#5A5A5A"/>
</svg>
