<svg width="31" height="31" viewBox="0 0 31 31" fill="none" xmlns="http://www.w3.org/2000/svg">
<g clip-path="url(#clip0_0_35)">
<path d="M10.1718 21.3124C10.1718 21.4409 10.2228 21.5641 10.3137 21.6549C10.4045 21.7458 10.5277 21.7968 10.6562 21.7968H20.3436C20.4721 21.7968 20.5953 21.7458 20.6861 21.6549C20.7769 21.5641 20.828 21.4409 20.828 21.3124C20.828 21.184 20.7769 21.0608 20.6861 20.9699C20.5953 20.8791 20.4721 20.8281 20.3436 20.8281H10.6562C10.5277 20.8281 10.4045 20.8791 10.3137 20.9699C10.2228 21.0608 10.1718 21.184 10.1718 21.3124ZM13.467 12.9822C13.1638 13.2861 12.9935 13.6979 12.9935 14.1273C12.9935 14.5566 13.1638 14.9684 13.467 15.2723C13.6769 15.4839 13.9458 15.6272 14.2385 15.6837C14.5311 15.7401 14.834 15.707 15.1076 15.5886L16.1025 15.1619C16.1982 15.1204 16.3043 15.1087 16.4067 15.1284C16.5092 15.1481 16.6034 15.1983 16.6769 15.2723C16.799 15.3944 16.8675 15.5599 16.8675 15.7325C16.8675 15.9051 16.799 16.0706 16.6769 16.1926C16.5549 16.3147 16.3894 16.3832 16.2168 16.3832C16.0442 16.3832 15.8787 16.3147 15.7566 16.1926C15.6653 16.1044 15.5429 16.0556 15.4159 16.0567C15.2889 16.0578 15.1674 16.1087 15.0776 16.1985C14.9878 16.2883 14.9369 16.4098 14.9358 16.5368C14.9347 16.6638 14.9835 16.7862 15.0717 16.8775C15.2221 17.0279 15.4006 17.1472 15.5971 17.2286C15.7935 17.3099 16.0041 17.3518 16.2168 17.3518C16.4294 17.3518 16.64 17.3099 16.8365 17.2286C17.0329 17.1472 17.2114 17.0279 17.3618 16.8775C17.5122 16.7272 17.6315 16.5486 17.7128 16.3522C17.7942 16.1557 17.8361 15.9451 17.8361 15.7325C17.8361 15.5198 17.7942 15.3092 17.7128 15.1128C17.6315 14.9163 17.5122 14.7378 17.3618 14.5874C17.1518 14.3759 16.8829 14.2327 16.5903 14.1763C16.2976 14.12 15.9948 14.1532 15.7213 14.2716L14.7259 14.6983C14.6301 14.7399 14.524 14.7516 14.4215 14.7318C14.319 14.712 14.2248 14.6617 14.1514 14.5874C14.091 14.527 14.043 14.4553 14.0103 14.3763C13.9776 14.2973 13.9608 14.2127 13.9608 14.1273C13.9608 14.0418 13.9776 13.9572 14.0103 13.8782C14.043 13.7993 14.091 13.7275 14.1514 13.6671C14.2118 13.6067 14.2836 13.5588 14.3625 13.526C14.4415 13.4933 14.5261 13.4765 14.6116 13.4765C14.697 13.4765 14.7816 13.4933 14.8606 13.526C14.9395 13.5588 15.0113 13.6067 15.0717 13.6671C15.1164 13.7134 15.1698 13.7503 15.2289 13.7757C15.288 13.801 15.3516 13.8144 15.4159 13.815C15.4802 13.8155 15.544 13.8033 15.6035 13.7789C15.6631 13.7546 15.7171 13.7186 15.7626 13.6731C15.8081 13.6276 15.8441 13.5736 15.8684 13.514C15.8928 13.4545 15.905 13.3907 15.9045 13.3264C15.9039 13.2621 15.8905 13.1985 15.8652 13.1394C15.8398 13.0803 15.8029 13.0269 15.7566 12.9822C15.4528 12.679 15.0411 12.5087 14.6118 12.5087C14.1826 12.5087 13.7708 12.679 13.467 12.9822Z" fill="white"/>
<path d="M10.1718 21.3124C10.1718 21.4409 10.2228 21.5641 10.3137 21.6549C10.4045 21.7458 10.5277 21.7968 10.6562 21.7968H20.3436C20.4721 21.7968 20.5953 21.7458 20.6861 21.6549C20.7769 21.5641 20.828 21.4409 20.828 21.3124C20.828 21.184 20.7769 21.0608 20.6861 20.9699C20.5953 20.8791 20.4721 20.8281 20.3436 20.8281H10.6562C10.5277 20.8281 10.4045 20.8791 10.3137 20.9699C10.2228 21.0608 10.1718 21.184 10.1718 21.3124ZM13.467 12.9822C13.1638 13.2861 12.9935 13.6979 12.9935 14.1273C12.9935 14.5566 13.1638 14.9684 13.467 15.2723C13.6769 15.4839 13.9458 15.6272 14.2385 15.6837C14.5311 15.7401 14.834 15.707 15.1076 15.5886L16.1025 15.1619C16.1982 15.1204 16.3043 15.1087 16.4067 15.1284C16.5092 15.1481 16.6034 15.1983 16.6769 15.2723C16.799 15.3944 16.8675 15.5599 16.8675 15.7325C16.8675 15.9051 16.799 16.0706 16.6769 16.1926C16.5549 16.3147 16.3894 16.3832 16.2168 16.3832C16.0442 16.3832 15.8787 16.3147 15.7566 16.1926C15.6653 16.1044 15.5429 16.0556 15.4159 16.0567C15.2889 16.0578 15.1674 16.1087 15.0776 16.1985C14.9878 16.2883 14.9369 16.4098 14.9358 16.5368C14.9347 16.6638 14.9835 16.7862 15.0717 16.8775C15.2221 17.0279 15.4006 17.1472 15.5971 17.2286C15.7935 17.3099 16.0041 17.3518 16.2168 17.3518C16.4294 17.3518 16.64 17.3099 16.8365 17.2286C17.0329 17.1472 17.2114 17.0279 17.3618 16.8775C17.5122 16.7272 17.6315 16.5486 17.7128 16.3522C17.7942 16.1557 17.8361 15.9451 17.8361 15.7325C17.8361 15.5198 17.7942 15.3092 17.7128 15.1128C17.6315 14.9163 17.5122 14.7378 17.3618 14.5874C17.1518 14.3759 16.8829 14.2327 16.5903 14.1763C16.2976 14.12 15.9948 14.1532 15.7213 14.2716L14.7259 14.6983C14.6301 14.7399 14.524 14.7516 14.4215 14.7318C14.319 14.712 14.2248 14.6617 14.1514 14.5874C14.091 14.527 14.043 14.4553 14.0103 14.3763C13.9776 14.2973 13.9608 14.2127 13.9608 14.1273C13.9608 14.0418 13.9776 13.9572 14.0103 13.8782C14.043 13.7993 14.091 13.7275 14.1514 13.6671C14.2118 13.6067 14.2836 13.5588 14.3625 13.526C14.4415 13.4933 14.5261 13.4765 14.6116 13.4765C14.697 13.4765 14.7816 13.4933 14.8606 13.526C14.9395 13.5588 15.0113 13.6067 15.0717 13.6671C15.1164 13.7134 15.1698 13.7503 15.2289 13.7757C15.288 13.801 15.3516 13.8144 15.4159 13.815C15.4802 13.8155 15.544 13.8033 15.6035 13.7789C15.6631 13.7546 15.7171 13.7186 15.7626 13.6731C15.8081 13.6276 15.8441 13.5736 15.8684 13.514C15.8928 13.4545 15.905 13.3907 15.9045 13.3264C15.9039 13.2621 15.8905 13.1985 15.8652 13.1394C15.8398 13.0803 15.8029 13.0269 15.7566 12.9822C15.4528 12.679 15.0411 12.5087 14.6118 12.5087C14.1826 12.5087 13.7708 12.679 13.467 12.9822Z" fill="black" fill-opacity="0.2"/>
<path d="M23.1917 11.1783L25.8005 9.68744H29.0623C29.1908 9.68744 29.314 9.63641 29.4048 9.54557C29.4956 9.45473 29.5467 9.33153 29.5467 9.20307V2.42187C29.5467 2.29341 29.4956 2.17021 29.4048 2.07937C29.314 1.98853 29.1908 1.9375 29.0623 1.9375H25.8005L23.1917 0.446604C22.6791 0.154134 22.0992 0.000218531 21.509 1.39084e-05H15.1676C14.7222 -0.00126625 14.2809 0.0858376 13.8693 0.256282C13.4578 0.426726 13.0841 0.677123 12.77 0.992975L9.26167 4.50128C8.91392 4.84903 8.71856 5.32068 8.71856 5.81247C8.71856 6.30426 8.91392 6.77591 9.26167 7.12366C9.60942 7.47141 10.0811 7.66678 10.5729 7.66678C11.0647 7.66678 11.5363 7.47141 11.8841 7.12366L12.5748 6.43343C12.6443 6.5556 12.7291 6.6684 12.8271 6.7691C13.1453 7.08671 13.5764 7.2651 14.026 7.2651C14.4755 7.2651 14.9066 7.08671 15.2248 6.7691L15.2383 6.75506L15.249 6.7691C15.5671 7.08671 15.9983 7.2651 16.4478 7.2651C16.8973 7.2651 17.3285 7.08671 17.6466 6.7691L19.4945 4.92123L19.9082 5.43805C19.9828 5.53106 20.0205 5.64841 20.0139 5.76751C20.0073 5.88661 19.9568 5.99906 19.8723 6.08323L17.7212 8.23433H14.7733C14.3239 8.23484 13.893 8.41361 13.5751 8.73143C13.2573 9.04925 13.0785 9.48016 13.078 9.92962C13.0799 10.2052 13.1498 10.4761 13.2815 10.7182C12.8362 10.9441 12.429 11.2385 12.0749 11.5905C11.3225 12.3455 10.8399 13.3275 10.7018 14.3845C10.5637 15.4414 10.7778 16.5144 11.311 17.4374H5.81247C5.72709 17.4374 5.64324 17.46 5.5694 17.5029C5.49557 17.5457 5.43438 17.6074 5.39203 17.6815L1.51706 24.4627C1.51077 24.4734 1.50834 24.486 1.50253 24.4966C1.49661 24.5096 1.49128 24.5229 1.48655 24.5363C1.46563 24.5894 1.45432 24.6459 1.45312 24.7029V30.5154C1.45313 30.6439 1.50416 30.7671 1.59499 30.8579C1.68583 30.9487 1.80903 30.9998 1.9375 30.9998H29.0623C29.1908 30.9998 29.314 30.9487 29.4048 30.8579C29.4956 30.7671 29.5467 30.6439 29.5467 30.5154V24.7029C29.5453 24.646 29.5338 24.5897 29.5128 24.5368C29.5081 24.5233 29.5028 24.51 29.4968 24.4971C29.4919 24.4855 29.489 24.4734 29.4827 24.4627L25.6078 17.6815C25.5654 17.6074 25.5042 17.5457 25.4304 17.5029C25.3565 17.46 25.2727 17.4374 25.1873 17.4374H19.6887C20.2177 16.5213 20.4324 15.4574 20.3001 14.4079C20.1677 13.3584 19.6957 12.381 18.9559 11.6249H21.509C22.0992 11.6247 22.6791 11.4708 23.1917 11.1783ZM13.512 6.08372C13.4064 5.97785 13.3372 5.84112 13.3144 5.69331L15.1327 3.87498H16.7486L14.5399 6.08372C14.4035 6.21995 14.2187 6.29648 14.026 6.29648C13.8332 6.29648 13.6484 6.21995 13.512 6.08372ZM16.9617 6.08372C16.8254 6.21981 16.6407 6.29624 16.448 6.29624C16.2554 6.29624 16.0707 6.21981 15.9344 6.08372C15.9295 6.07984 15.9286 6.07306 15.9247 6.06919L18.1189 3.87498H18.658L18.8856 4.15979L16.9617 6.08372ZM14.7733 9.20307H17.9217C18.0502 9.20304 18.1734 9.15199 18.2642 9.06115L20.5572 6.76813C20.8105 6.51546 20.9616 6.17815 20.9814 5.82094C21.0012 5.46372 20.8885 5.11176 20.6647 4.83259L19.2688 3.08836C19.2234 3.03162 19.1658 2.9858 19.1004 2.95428C19.0349 2.92276 18.9632 2.90634 18.8905 2.90624H14.9322C14.8038 2.90627 14.6806 2.95732 14.5898 3.04816L11.1992 6.43876C11.0319 6.59902 10.8085 6.68737 10.5768 6.68488C10.3452 6.68239 10.1237 6.58926 9.95988 6.42545C9.79607 6.26164 9.70295 6.04018 9.70046 5.80853C9.69797 5.57688 9.78632 5.35347 9.94658 5.18618L13.4549 1.67788C13.9102 1.22524 14.5256 0.970432 15.1676 0.968756H21.509C21.9306 0.969058 22.345 1.07906 22.7112 1.28796L25.4314 2.84279C25.5046 2.88447 25.5875 2.90634 25.6717 2.90624H28.5779V8.7187H25.6717C25.5874 8.71874 25.5046 8.74078 25.4314 8.78263L22.7112 10.3375C22.3449 10.5462 21.9306 10.656 21.509 10.6562H14.7733C14.5806 10.6562 14.3958 10.5796 14.2596 10.4434C14.1233 10.3071 14.0468 10.1223 14.0468 9.92962C14.0468 9.73693 14.1233 9.55213 14.2596 9.41587C14.3958 9.27962 14.5806 9.20307 14.7733 9.20307ZM2.42187 30.031V25.1873H28.5779V30.031H2.42187ZM24.9064 18.4061L28.2277 24.2186H2.77207L6.0934 18.4061H12.0439C12.0546 18.4173 12.0633 18.4294 12.0749 18.44C12.9833 19.3484 14.2153 19.8587 15.4999 19.8587C16.7845 19.8587 18.0165 19.3484 18.9249 18.44C18.936 18.4294 18.9452 18.4173 18.9559 18.4061H24.9064ZM18.24 12.2754C18.7819 12.8174 19.1509 13.5078 19.3004 14.2595C19.4499 15.0112 19.3732 15.7903 19.0799 16.4983C18.7866 17.2064 18.2899 17.8115 17.6527 18.2373C17.0155 18.6631 16.2663 18.8904 15.4999 18.8904C14.7335 18.8904 13.9843 18.6631 13.3471 18.2373C12.7099 17.8115 12.2132 17.2064 11.9199 16.4983C11.6266 15.7903 11.5499 15.0112 11.6994 14.2595C11.8489 13.5078 12.2179 12.8174 12.7598 12.2754C13.1216 11.9161 13.5516 11.6329 14.0245 11.4423C14.2565 11.5606 14.5129 11.6231 14.7733 11.6249H17.3613C17.6835 11.7991 17.9794 12.0181 18.24 12.2754Z" fill="white"/>
<path d="M23.1917 11.1783L25.8005 9.68744H29.0623C29.1908 9.68744 29.314 9.63641 29.4048 9.54557C29.4956 9.45473 29.5467 9.33153 29.5467 9.20307V2.42187C29.5467 2.29341 29.4956 2.17021 29.4048 2.07937C29.314 1.98853 29.1908 1.9375 29.0623 1.9375H25.8005L23.1917 0.446604C22.6791 0.154134 22.0992 0.000218531 21.509 1.39084e-05H15.1676C14.7222 -0.00126625 14.2809 0.0858376 13.8693 0.256282C13.4578 0.426726 13.0841 0.677123 12.77 0.992975L9.26167 4.50128C8.91392 4.84903 8.71856 5.32068 8.71856 5.81247C8.71856 6.30426 8.91392 6.77591 9.26167 7.12366C9.60942 7.47141 10.0811 7.66678 10.5729 7.66678C11.0647 7.66678 11.5363 7.47141 11.8841 7.12366L12.5748 6.43343C12.6443 6.5556 12.7291 6.6684 12.8271 6.7691C13.1453 7.08671 13.5764 7.2651 14.026 7.2651C14.4755 7.2651 14.9066 7.08671 15.2248 6.7691L15.2383 6.75506L15.249 6.7691C15.5671 7.08671 15.9983 7.2651 16.4478 7.2651C16.8973 7.2651 17.3285 7.08671 17.6466 6.7691L19.4945 4.92123L19.9082 5.43805C19.9828 5.53106 20.0205 5.64841 20.0139 5.76751C20.0073 5.88661 19.9568 5.99906 19.8723 6.08323L17.7212 8.23433H14.7733C14.3239 8.23484 13.893 8.41361 13.5751 8.73143C13.2573 9.04925 13.0785 9.48016 13.078 9.92962C13.0799 10.2052 13.1498 10.4761 13.2815 10.7182C12.8362 10.9441 12.429 11.2385 12.0749 11.5905C11.3225 12.3455 10.8399 13.3275 10.7018 14.3845C10.5637 15.4414 10.7778 16.5144 11.311 17.4374H5.81247C5.72709 17.4374 5.64324 17.46 5.5694 17.5029C5.49557 17.5457 5.43438 17.6074 5.39203 17.6815L1.51706 24.4627C1.51077 24.4734 1.50834 24.486 1.50253 24.4966C1.49661 24.5096 1.49128 24.5229 1.48655 24.5363C1.46563 24.5894 1.45432 24.6459 1.45312 24.7029V30.5154C1.45313 30.6439 1.50416 30.7671 1.59499 30.8579C1.68583 30.9487 1.80903 30.9998 1.9375 30.9998H29.0623C29.1908 30.9998 29.314 30.9487 29.4048 30.8579C29.4956 30.7671 29.5467 30.6439 29.5467 30.5154V24.7029C29.5453 24.646 29.5338 24.5897 29.5128 24.5368C29.5081 24.5233 29.5028 24.51 29.4968 24.4971C29.4919 24.4855 29.489 24.4734 29.4827 24.4627L25.6078 17.6815C25.5654 17.6074 25.5042 17.5457 25.4304 17.5029C25.3565 17.46 25.2727 17.4374 25.1873 17.4374H19.6887C20.2177 16.5213 20.4324 15.4574 20.3001 14.4079C20.1677 13.3584 19.6957 12.381 18.9559 11.6249H21.509C22.0992 11.6247 22.6791 11.4708 23.1917 11.1783ZM13.512 6.08372C13.4064 5.97785 13.3372 5.84112 13.3144 5.69331L15.1327 3.87498H16.7486L14.5399 6.08372C14.4035 6.21995 14.2187 6.29648 14.026 6.29648C13.8332 6.29648 13.6484 6.21995 13.512 6.08372ZM16.9617 6.08372C16.8254 6.21981 16.6407 6.29624 16.448 6.29624C16.2554 6.29624 16.0707 6.21981 15.9344 6.08372C15.9295 6.07984 15.9286 6.07306 15.9247 6.06919L18.1189 3.87498H18.658L18.8856 4.15979L16.9617 6.08372ZM14.7733 9.20307H17.9217C18.0502 9.20304 18.1734 9.15199 18.2642 9.06115L20.5572 6.76813C20.8105 6.51546 20.9616 6.17815 20.9814 5.82094C21.0012 5.46372 20.8885 5.11176 20.6647 4.83259L19.2688 3.08836C19.2234 3.03162 19.1658 2.9858 19.1004 2.95428C19.0349 2.92276 18.9632 2.90634 18.8905 2.90624H14.9322C14.8038 2.90627 14.6806 2.95732 14.5898 3.04816L11.1992 6.43876C11.0319 6.59902 10.8085 6.68737 10.5768 6.68488C10.3452 6.68239 10.1237 6.58926 9.95988 6.42545C9.79607 6.26164 9.70295 6.04018 9.70046 5.80853C9.69797 5.57688 9.78632 5.35347 9.94658 5.18618L13.4549 1.67788C13.9102 1.22524 14.5256 0.970432 15.1676 0.968756H21.509C21.9306 0.969058 22.345 1.07906 22.7112 1.28796L25.4314 2.84279C25.5046 2.88447 25.5875 2.90634 25.6717 2.90624H28.5779V8.7187H25.6717C25.5874 8.71874 25.5046 8.74078 25.4314 8.78263L22.7112 10.3375C22.3449 10.5462 21.9306 10.656 21.509 10.6562H14.7733C14.5806 10.6562 14.3958 10.5796 14.2596 10.4434C14.1233 10.3071 14.0468 10.1223 14.0468 9.92962C14.0468 9.73693 14.1233 9.55213 14.2596 9.41587C14.3958 9.27962 14.5806 9.20307 14.7733 9.20307ZM2.42187 30.031V25.1873H28.5779V30.031H2.42187ZM24.9064 18.4061L28.2277 24.2186H2.77207L6.0934 18.4061H12.0439C12.0546 18.4173 12.0633 18.4294 12.0749 18.44C12.9833 19.3484 14.2153 19.8587 15.4999 19.8587C16.7845 19.8587 18.0165 19.3484 18.9249 18.44C18.936 18.4294 18.9452 18.4173 18.9559 18.4061H24.9064ZM18.24 12.2754C18.7819 12.8174 19.1509 13.5078 19.3004 14.2595C19.4499 15.0112 19.3732 15.7903 19.0799 16.4983C18.7866 17.2064 18.2899 17.8115 17.6527 18.2373C17.0155 18.6631 16.2663 18.8904 15.4999 18.8904C14.7335 18.8904 13.9843 18.6631 13.3471 18.2373C12.7099 17.8115 12.2132 17.2064 11.9199 16.4983C11.6266 15.7903 11.5499 15.0112 11.6994 14.2595C11.8489 13.5078 12.2179 12.8174 12.7598 12.2754C13.1216 11.9161 13.5516 11.6329 14.0245 11.4423C14.2565 11.5606 14.5129 11.6231 14.7733 11.6249H17.3613C17.6835 11.7991 17.9794 12.0181 18.24 12.2754Z" fill="black" fill-opacity="0.2"/>
</g>
<defs>
<clipPath id="clip0_0_35">
<rect width="30.24" height="30.24" fill="white" transform="scale(1.02512)"/>
</clipPath>
</defs>
</svg>
