 <svg width="16" height="14" viewBox="0 0 16 14" fill="none" xmlns="http://www.w3.org/2000/svg">
<g clip-path="url(#clip0_605_6085)">
<path d="M11.922 11.2569C10.7493 11.9077 9.38871 12.2524 7.99999 12.2503C4.40533 12.2503 1.41466 9.98698 0.787994 7.00031C1.07445 5.64192 1.85503 4.40093 3.01333 3.46239L0.929328 1.63831L1.87199 0.813477L15.0713 12.3623L14.1287 13.1877L11.922 11.2569ZM3.95733 4.28781C3.05109 5.00849 2.41972 5.95536 2.14866 7.00031C2.35686 7.79741 2.77484 8.54098 3.36933 9.17182C3.96382 9.80267 4.71841 10.3034 5.57303 10.6341C6.42765 10.9648 7.35869 11.1163 8.29205 11.0767C9.22542 11.0371 10.1353 10.8074 10.9493 10.4058L9.59733 9.22281C9.02179 9.54004 8.34013 9.6767 7.66415 9.6104C6.98818 9.54409 6.35802 9.27875 5.87704 8.85789C5.39606 8.43704 5.09281 7.88565 5.01704 7.29417C4.94126 6.70269 5.09745 6.10624 5.45999 5.60264L3.95733 4.28781ZM8.60933 8.35831L6.44799 6.46773C6.32937 6.73194 6.30145 7.0207 6.36766 7.29859C6.43388 7.57649 6.59134 7.83143 6.82074 8.03216C7.05014 8.23288 7.34151 8.37066 7.6591 8.4286C7.97669 8.48653 8.30737 8.46211 8.60933 8.35831ZM13.8713 9.67956L12.9173 8.84481C13.3632 8.28911 13.6807 7.66254 13.852 7.00031C13.6708 6.30592 13.3302 5.65102 12.8507 5.07542C12.3713 4.49983 11.763 4.01556 11.063 3.65207C10.363 3.28857 9.58579 3.05344 8.77867 2.96097C7.97155 2.86849 7.15137 2.92061 6.36799 3.11414L5.31599 2.19364C6.14733 1.90781 7.05333 1.75031 7.99999 1.75031C11.5947 1.75031 14.5853 4.01364 15.2127 7.00031C15.0085 7.97217 14.5493 8.88931 13.8713 9.67956ZM7.81533 4.38056C8.23967 4.35761 8.66474 4.41385 9.06236 4.54554C9.45998 4.67722 9.82107 4.88136 10.1217 5.14441C10.4223 5.40745 10.6556 5.72341 10.8061 6.07133C10.9566 6.41924 11.0209 6.79118 10.9947 7.16248L7.81466 4.37998L7.81533 4.38056Z" fill="#414141"/>
<path d="M11.922 11.2569C10.7493 11.9077 9.38871 12.2524 7.99999 12.2503C4.40533 12.2503 1.41466 9.98698 0.787994 7.00031C1.07445 5.64192 1.85503 4.40093 3.01333 3.46239L0.929328 1.63831L1.87199 0.813477L15.0713 12.3623L14.1287 13.1877L11.922 11.2569ZM3.95733 4.28781C3.05109 5.00849 2.41972 5.95536 2.14866 7.00031C2.35686 7.79741 2.77484 8.54098 3.36933 9.17182C3.96382 9.80267 4.71841 10.3034 5.57303 10.6341C6.42765 10.9648 7.35869 11.1163 8.29205 11.0767C9.22542 11.0371 10.1353 10.8074 10.9493 10.4058L9.59733 9.22281C9.02179 9.54004 8.34013 9.6767 7.66415 9.6104C6.98818 9.54409 6.35802 9.27875 5.87704 8.85789C5.39606 8.43704 5.09281 7.88565 5.01704 7.29417C4.94126 6.70269 5.09745 6.10624 5.45999 5.60264L3.95733 4.28781ZM8.60933 8.35831L6.44799 6.46773C6.32937 6.73194 6.30145 7.0207 6.36766 7.29859C6.43388 7.57649 6.59134 7.83143 6.82074 8.03216C7.05014 8.23288 7.34151 8.37066 7.6591 8.4286C7.97669 8.48653 8.30737 8.46211 8.60933 8.35831ZM13.8713 9.67956L12.9173 8.84481C13.3632 8.28911 13.6807 7.66254 13.852 7.00031C13.6708 6.30592 13.3302 5.65102 12.8507 5.07542C12.3713 4.49983 11.763 4.01556 11.063 3.65207C10.363 3.28857 9.58579 3.05344 8.77867 2.96097C7.97155 2.86849 7.15137 2.92061 6.36799 3.11414L5.31599 2.19364C6.14733 1.90781 7.05333 1.75031 7.99999 1.75031C11.5947 1.75031 14.5853 4.01364 15.2127 7.00031C15.0085 7.97217 14.5493 8.88931 13.8713 9.67956ZM7.81533 4.38056C8.23967 4.35761 8.66474 4.41385 9.06236 4.54554C9.45998 4.67722 9.82107 4.88136 10.1217 5.14441C10.4223 5.40745 10.6556 5.72341 10.8061 6.07133C10.9566 6.41924 11.0209 6.79118 10.9947 7.16248L7.81466 4.37998L7.81533 4.38056Z" fill="black" fill-opacity="0.2"/>
<path d="M11.922 11.2569C10.7493 11.9077 9.38871 12.2524 7.99999 12.2503C4.40533 12.2503 1.41466 9.98698 0.787994 7.00031C1.07445 5.64192 1.85503 4.40093 3.01333 3.46239L0.929328 1.63831L1.87199 0.813477L15.0713 12.3623L14.1287 13.1877L11.922 11.2569ZM3.95733 4.28781C3.05109 5.00849 2.41972 5.95536 2.14866 7.00031C2.35686 7.79741 2.77484 8.54098 3.36933 9.17182C3.96382 9.80267 4.71841 10.3034 5.57303 10.6341C6.42765 10.9648 7.35869 11.1163 8.29205 11.0767C9.22542 11.0371 10.1353 10.8074 10.9493 10.4058L9.59733 9.22281C9.02179 9.54004 8.34013 9.6767 7.66415 9.6104C6.98818 9.54409 6.35802 9.27875 5.87704 8.85789C5.39606 8.43704 5.09281 7.88565 5.01704 7.29417C4.94126 6.70269 5.09745 6.10624 5.45999 5.60264L3.95733 4.28781ZM8.60933 8.35831L6.44799 6.46773C6.32937 6.73194 6.30145 7.0207 6.36766 7.29859C6.43388 7.57649 6.59134 7.83143 6.82074 8.03216C7.05014 8.23288 7.34151 8.37066 7.6591 8.4286C7.97669 8.48653 8.30737 8.46211 8.60933 8.35831ZM13.8713 9.67956L12.9173 8.84481C13.3632 8.28911 13.6807 7.66254 13.852 7.00031C13.6708 6.30592 13.3302 5.65102 12.8507 5.07542C12.3713 4.49983 11.763 4.01556 11.063 3.65207C10.363 3.28857 9.58579 3.05344 8.77867 2.96097C7.97155 2.86849 7.15137 2.92061 6.36799 3.11414L5.31599 2.19364C6.14733 1.90781 7.05333 1.75031 7.99999 1.75031C11.5947 1.75031 14.5853 4.01364 15.2127 7.00031C15.0085 7.97217 14.5493 8.88931 13.8713 9.67956ZM7.81533 4.38056C8.23967 4.35761 8.66474 4.41385 9.06236 4.54554C9.45998 4.67722 9.82107 4.88136 10.1217 5.14441C10.4223 5.40745 10.6556 5.72341 10.8061 6.07133C10.9566 6.41924 11.0209 6.79118 10.9947 7.16248L7.81466 4.37998L7.81533 4.38056Z" fill="black" fill-opacity="0.2"/>
<path d="M11.922 11.2569C10.7493 11.9077 9.38871 12.2524 7.99999 12.2503C4.40533 12.2503 1.41466 9.98698 0.787994 7.00031C1.07445 5.64192 1.85503 4.40093 3.01333 3.46239L0.929328 1.63831L1.87199 0.813477L15.0713 12.3623L14.1287 13.1877L11.922 11.2569ZM3.95733 4.28781C3.05109 5.00849 2.41972 5.95536 2.14866 7.00031C2.35686 7.79741 2.77484 8.54098 3.36933 9.17182C3.96382 9.80267 4.71841 10.3034 5.57303 10.6341C6.42765 10.9648 7.35869 11.1163 8.29205 11.0767C9.22542 11.0371 10.1353 10.8074 10.9493 10.4058L9.59733 9.22281C9.02179 9.54004 8.34013 9.6767 7.66415 9.6104C6.98818 9.54409 6.35802 9.27875 5.87704 8.85789C5.39606 8.43704 5.09281 7.88565 5.01704 7.29417C4.94126 6.70269 5.09745 6.10624 5.45999 5.60264L3.95733 4.28781ZM8.60933 8.35831L6.44799 6.46773C6.32937 6.73194 6.30145 7.0207 6.36766 7.29859C6.43388 7.57649 6.59134 7.83143 6.82074 8.03216C7.05014 8.23288 7.34151 8.37066 7.6591 8.4286C7.97669 8.48653 8.30737 8.46211 8.60933 8.35831ZM13.8713 9.67956L12.9173 8.84481C13.3632 8.28911 13.6807 7.66254 13.852 7.00031C13.6708 6.30592 13.3302 5.65102 12.8507 5.07542C12.3713 4.49983 11.763 4.01556 11.063 3.65207C10.363 3.28857 9.58579 3.05344 8.77867 2.96097C7.97155 2.86849 7.15137 2.92061 6.36799 3.11414L5.31599 2.19364C6.14733 1.90781 7.05333 1.75031 7.99999 1.75031C11.5947 1.75031 14.5853 4.01364 15.2127 7.00031C15.0085 7.97217 14.5493 8.88931 13.8713 9.67956ZM7.81533 4.38056C8.23967 4.35761 8.66474 4.41385 9.06236 4.54554C9.45998 4.67722 9.82107 4.88136 10.1217 5.14441C10.4223 5.40745 10.6556 5.72341 10.8061 6.07133C10.9566 6.41924 11.0209 6.79118 10.9947 7.16248L7.81466 4.37998L7.81533 4.38056Z" fill="black" fill-opacity="0.2"/>
<path d="M11.922 11.2569C10.7493 11.9077 9.38871 12.2524 7.99999 12.2503C4.40533 12.2503 1.41466 9.98698 0.787994 7.00031C1.07445 5.64192 1.85503 4.40093 3.01333 3.46239L0.929328 1.63831L1.87199 0.813477L15.0713 12.3623L14.1287 13.1877L11.922 11.2569ZM3.95733 4.28781C3.05109 5.00849 2.41972 5.95536 2.14866 7.00031C2.35686 7.79741 2.77484 8.54098 3.36933 9.17182C3.96382 9.80267 4.71841 10.3034 5.57303 10.6341C6.42765 10.9648 7.35869 11.1163 8.29205 11.0767C9.22542 11.0371 10.1353 10.8074 10.9493 10.4058L9.59733 9.22281C9.02179 9.54004 8.34013 9.6767 7.66415 9.6104C6.98818 9.54409 6.35802 9.27875 5.87704 8.85789C5.39606 8.43704 5.09281 7.88565 5.01704 7.29417C4.94126 6.70269 5.09745 6.10624 5.45999 5.60264L3.95733 4.28781ZM8.60933 8.35831L6.44799 6.46773C6.32937 6.73194 6.30145 7.0207 6.36766 7.29859C6.43388 7.57649 6.59134 7.83143 6.82074 8.03216C7.05014 8.23288 7.34151 8.37066 7.6591 8.4286C7.97669 8.48653 8.30737 8.46211 8.60933 8.35831ZM13.8713 9.67956L12.9173 8.84481C13.3632 8.28911 13.6807 7.66254 13.852 7.00031C13.6708 6.30592 13.3302 5.65102 12.8507 5.07542C12.3713 4.49983 11.763 4.01556 11.063 3.65207C10.363 3.28857 9.58579 3.05344 8.77867 2.96097C7.97155 2.86849 7.15137 2.92061 6.36799 3.11414L5.31599 2.19364C6.14733 1.90781 7.05333 1.75031 7.99999 1.75031C11.5947 1.75031 14.5853 4.01364 15.2127 7.00031C15.0085 7.97217 14.5493 8.88931 13.8713 9.67956ZM7.81533 4.38056C8.23967 4.35761 8.66474 4.41385 9.06236 4.54554C9.45998 4.67722 9.82107 4.88136 10.1217 5.14441C10.4223 5.40745 10.6556 5.72341 10.8061 6.07133C10.9566 6.41924 11.0209 6.79118 10.9947 7.16248L7.81466 4.37998L7.81533 4.38056Z" fill="black" fill-opacity="0.2"/>
</g>
<defs>
<clipPath id="clip0_605_6085">
<rect width="16" height="14" fill="white"/>
</clipPath>
</defs>
</svg>
