<svg width="24" height="24" viewBox="0 0 24 24" fill="none" xmlns="http://www.w3.org/2000/svg">
<path d="M17.2273 3.68725C17.3176 3.59178 17.3881 3.47947 17.4349 3.35674C17.4817 3.23401 17.5039 3.10327 17.5002 2.97196C17.4965 2.84066 17.4669 2.71138 17.4133 2.59149C17.3596 2.47161 17.2828 2.36347 17.1873 2.27325C17.0919 2.18303 16.9796 2.1125 16.8568 2.06569C16.7341 2.01887 16.6034 1.99669 16.4721 2.0004C16.3408 2.00411 16.2115 2.03365 16.0916 2.08733C15.9717 2.14101 15.8636 2.21778 15.7733 2.31325L7.27334 11.3132C7.09781 11.4989 7 11.7447 7 12.0002C7 12.2558 7.09781 12.5016 7.27334 12.6872L15.7733 21.6882C15.863 21.7858 15.9711 21.8646 16.0914 21.92C16.2117 21.9754 16.3419 22.0064 16.4743 22.0111C16.6067 22.0158 16.7387 21.9942 16.8626 21.9474C16.9866 21.9007 17.1 21.8298 17.1963 21.7388C17.2927 21.6479 17.3699 21.5387 17.4237 21.4176C17.4775 21.2965 17.5067 21.166 17.5095 21.0335C17.5124 20.9011 17.489 20.7694 17.4405 20.6461C17.3921 20.5228 17.3196 20.4103 17.2273 20.3153L9.37534 12.0002L17.2273 3.68725Z" fill="white"/>
<path d="M17.2273 3.68725C17.3176 3.59178 17.3881 3.47947 17.4349 3.35674C17.4817 3.23401 17.5039 3.10327 17.5002 2.97196C17.4965 2.84066 17.4669 2.71138 17.4133 2.59149C17.3596 2.47161 17.2828 2.36347 17.1873 2.27325C17.0919 2.18303 16.9796 2.1125 16.8568 2.06569C16.7341 2.01887 16.6034 1.99669 16.4721 2.0004C16.3408 2.00411 16.2115 2.03365 16.0916 2.08733C15.9717 2.14101 15.8636 2.21778 15.7733 2.31325L7.27334 11.3132C7.09781 11.4989 7 11.7447 7 12.0002C7 12.2558 7.09781 12.5016 7.27334 12.6872L15.7733 21.6882C15.863 21.7858 15.9711 21.8646 16.0914 21.92C16.2117 21.9754 16.3419 22.0064 16.4743 22.0111C16.6067 22.0158 16.7387 21.9942 16.8626 21.9474C16.9866 21.9007 17.1 21.8298 17.1963 21.7388C17.2927 21.6479 17.3699 21.5387 17.4237 21.4176C17.4775 21.2965 17.5067 21.166 17.5095 21.0335C17.5124 20.9011 17.489 20.7694 17.4405 20.6461C17.3921 20.5228 17.3196 20.4103 17.2273 20.3153L9.37534 12.0002L17.2273 3.68725Z" fill="black" fill-opacity="0.2"/>
</svg>
