<svg width="14" height="14" viewBox="0 0 14 14" fill="none" xmlns="http://www.w3.org/2000/svg">
<path d="M9.60967 3.15457L10.8452 4.38948M10.4042 2.06665L7.06342 5.4074C6.89081 5.57977 6.77308 5.79939 6.72509 6.03857L6.4165 7.58323L7.96117 7.27407C8.20034 7.22623 8.41967 7.10898 8.59234 6.93632L11.9331 3.59557C12.0335 3.49518 12.1131 3.376 12.1674 3.24483C12.2218 3.11366 12.2497 2.97308 12.2497 2.83111C12.2497 2.68913 12.2218 2.54855 12.1674 2.41739C12.1131 2.28622 12.0335 2.16704 11.9331 2.06665C11.8327 1.96626 11.7135 1.88663 11.5824 1.83229C11.4512 1.77796 11.3106 1.75 11.1686 1.75C11.0267 1.75 10.8861 1.77796 10.7549 1.83229C10.6237 1.88663 10.5046 1.96626 10.4042 2.06665Z" stroke="white" stroke-linecap="round" stroke-linejoin="round"/>
<path d="M9.60967 3.15457L10.8452 4.38948M10.4042 2.06665L7.06342 5.4074C6.89081 5.57977 6.77308 5.79939 6.72509 6.03857L6.4165 7.58323L7.96117 7.27407C8.20034 7.22623 8.41967 7.10898 8.59234 6.93632L11.9331 3.59557C12.0335 3.49518 12.1131 3.376 12.1674 3.24483C12.2218 3.11366 12.2497 2.97308 12.2497 2.83111C12.2497 2.68913 12.2218 2.54855 12.1674 2.41739C12.1131 2.28622 12.0335 2.16704 11.9331 2.06665C11.8327 1.96626 11.7135 1.88663 11.5824 1.83229C11.4512 1.77796 11.3106 1.75 11.1686 1.75C11.0267 1.75 10.8861 1.77796 10.7549 1.83229C10.6237 1.88663 10.5046 1.96626 10.4042 2.06665Z" stroke="black" stroke-opacity="0.2" stroke-linecap="round" stroke-linejoin="round"/>
<path d="M11.0833 8.74935V10.4993C11.0833 10.8088 10.9603 11.1055 10.7415 11.3243C10.5228 11.5431 10.226 11.666 9.91659 11.666H3.49992C3.1905 11.666 2.89375 11.5431 2.67496 11.3243C2.45617 11.1055 2.33325 10.8088 2.33325 10.4993V4.08268C2.33325 3.77326 2.45617 3.47652 2.67496 3.25772C2.89375 3.03893 3.1905 2.91602 3.49992 2.91602H5.24992" stroke="white" stroke-linecap="round" stroke-linejoin="round"/>
<path d="M11.0833 8.74935V10.4993C11.0833 10.8088 10.9603 11.1055 10.7415 11.3243C10.5228 11.5431 10.226 11.666 9.91659 11.666H3.49992C3.1905 11.666 2.89375 11.5431 2.67496 11.3243C2.45617 11.1055 2.33325 10.8088 2.33325 10.4993V4.08268C2.33325 3.77326 2.45617 3.47652 2.67496 3.25772C2.89375 3.03893 3.1905 2.91602 3.49992 2.91602H5.24992" stroke="black" stroke-opacity="0.2" stroke-linecap="round" stroke-linejoin="round"/>
</svg>
