<svg width="40" height="40" viewBox="0 0 40 40" fill="none" xmlns="http://www.w3.org/2000/svg">
<g clip-path="url(#clip0_616_1646)">
<path d="M13.6731 17.0909H5.53556C5.15956 17.0909 4.79006 17.1888 4.46344 17.3751C4.13682 17.5614 3.86436 17.8295 3.6729 18.1531L1.26095 22.2293C0.83329 22.9521 0.607667 23.7765 0.607666 24.6164V38.1155C0.607666 38.8327 1.18907 39.4141 1.90626 39.4141H38.0939C38.8111 39.4141 39.3925 38.8327 39.3925 38.1155V24.6164C39.3925 23.7765 39.1669 22.9521 38.7392 22.2293L36.3272 18.153C36.1357 17.8294 35.8633 17.5613 35.5367 17.375C35.21 17.1888 34.8405 17.0908 34.4645 17.0908H31.1719M28.4375 17.0909H26.3269" stroke="#003057" stroke-width="1.5" stroke-miterlimit="10" stroke-linecap="round" stroke-linejoin="round"/>
<path d="M8.51562 23.9261H1.90617C1.18898 23.9261 0.607574 24.5075 0.607574 25.2247V38.1158C0.607574 38.833 1.18898 39.4144 1.90617 39.4144H38.0938C38.811 39.4144 39.3924 38.833 39.3924 38.1158V25.2247C39.3924 24.5075 38.811 23.9261 38.0938 23.9261H11.25M24.6719 8.9007C23.4333 7.78836 21.7958 7.11133 20 7.11133C18.4131 7.11133 16.9499 7.64008 15.7762 8.53055M13.9584 10.5797C13.3527 11.6152 13.0052 12.82 13.0052 14.1062C13.0052 16.5581 14.2678 18.7141 16.1773 19.963H23.8227C25.7322 18.7141 26.9948 16.5581 26.9948 14.1062C26.9954 13.3709 26.8799 12.6401 26.6527 11.9408" stroke="#003057" stroke-width="1.5" stroke-miterlimit="10" stroke-linecap="round" stroke-linejoin="round"/>
<path d="M22.084 12.5108C22.084 11.8288 21.5311 11.2759 20.8491 11.2759H19.151C18.469 11.2759 17.9161 11.8288 17.9161 12.5108V12.8709C17.9161 13.553 18.469 14.1059 19.151 14.1059H20.8491C21.5311 14.1059 22.084 14.6587 22.084 15.3408V15.7009C22.084 16.383 21.5311 16.9359 20.8491 16.9359H19.151C18.469 16.9359 17.9161 16.4597 17.9161 15.7777M20 10.1438V11.2759M20 16.9359V18.068M9.14478 19.9627H30.8552M30.1724 8.42086L25.9792 12.614C25.6198 12.9734 25.037 12.9734 24.6776 12.614C23.6505 11.5869 23.6505 9.92148 24.6776 8.89437L26.863 6.70898C26.9996 6.5724 27.1079 6.41025 27.1818 6.23179C27.2557 6.05334 27.2938 5.86207 27.2938 5.66891V4.76312M38.5267 11.7539H33.9383C33.4602 11.7539 33.0726 11.3663 33.0726 10.8882V1.45164C33.0726 0.973516 33.4602 0.585938 33.9383 0.585938H38.5266C39.0048 0.585938 39.3924 0.973516 39.3924 1.45164V10.8881C39.3924 11.3663 39.0049 11.7539 38.5267 11.7539Z" stroke="#003057" stroke-width="1.5" stroke-miterlimit="10" stroke-linecap="round" stroke-linejoin="round"/>
<path d="M27.2721 11.3212H29.523C30.9927 11.3212 32.2902 10.5879 33.0726 9.46816V1.75488H26.1858C24.6364 1.75488 23.1504 2.37038 22.0548 3.46598L18.1662 7.35465M23.1005 34.5484L25.262 28.8729C25.3062 28.765 25.4591 28.7648 25.5034 28.8727L27.6454 34.5484M23.7746 33.1349H26.9821M35.9034 28.8181H33.5V34.5221H35.9034M35.7262 31.6701H33.5M17.3161 34.5484V28.8026L21.2008 34.4279C21.2728 34.5319 21.3499 34.4809 21.3499 34.3544L21.2962 28.7918M4.09664 28.8828V34.3725M28.4708 28.7918H31.6498M30.0539 28.9757V34.5484M7.9346 31.6701C7.9346 33.2093 7.08031 34.4273 5.72499 34.451C5.27382 34.4589 4.10789 34.4632 4.10789 34.4632C4.10789 34.4632 4.10062 32.4398 4.10062 31.6639C4.10062 31.0268 4.09656 28.877 4.09656 28.877H5.67867C7.16531 28.877 7.9346 30.1309 7.9346 31.6701Z" stroke="#003057" stroke-width="1.5" stroke-miterlimit="10" stroke-linecap="round" stroke-linejoin="round"/>
<path d="M12.6474 34.5486C14.237 34.5486 15.5256 33.2599 15.5256 31.6703C15.5256 30.0806 14.237 28.792 12.6474 28.792C11.0577 28.792 9.76907 30.0806 9.76907 31.6703C9.76907 33.2599 11.0577 34.5486 12.6474 34.5486Z" stroke="#003057" stroke-width="1.5" stroke-miterlimit="10" stroke-linecap="round" stroke-linejoin="round"/>
</g>
<defs>
<clipPath id="clip0_616_1646">
<rect width="40" height="40" fill="white"/>
</clipPath>
</defs>
</svg>
